<mxfile host="Electron" agent="Mozilla/5.0 (Windows NT 10.0; Win64; x64) AppleWebKit/537.36 (KHTML, like Gecko) draw.io/26.1.1 Chrome/132.0.6834.210 Electron/34.3.3 Safari/537.36" version="26.1.1" pages="15">
  <diagram name="foprogram-asztali" id="_1ExJI12dUMNwdjTNg_y">
    <mxGraphModel dx="1434" dy="694" grid="1" gridSize="10" guides="1" tooltips="1" connect="1" arrows="1" fold="1" page="1" pageScale="1" pageWidth="827" pageHeight="1169" math="0" shadow="0">
      <root>
        <mxCell id="0" />
        <mxCell id="1" parent="0" />
        <mxCell id="zD45KhNsvAk6A_7PA_Ly-1" style="edgeStyle=orthogonalEdgeStyle;rounded=0;orthogonalLoop=1;jettySize=auto;html=1;exitX=0.5;exitY=1;exitDx=0;exitDy=0;entryX=0.5;entryY=0;entryDx=0;entryDy=0;" edge="1" parent="1" source="A8eU3PPxmW5Uf7VAVFfy-1" target="A8eU3PPxmW5Uf7VAVFfy-3">
          <mxGeometry relative="1" as="geometry" />
        </mxCell>
        <mxCell id="A8eU3PPxmW5Uf7VAVFfy-1" value="start" style="ellipse;whiteSpace=wrap;html=1;" vertex="1" parent="1">
          <mxGeometry x="354" y="20" width="120" height="80" as="geometry" />
        </mxCell>
        <mxCell id="A8eU3PPxmW5Uf7VAVFfy-2" value="Főprogram&lt;div&gt;asztali alkalmazás&lt;/div&gt;" style="text;html=1;align=center;verticalAlign=middle;whiteSpace=wrap;rounded=0;fontSize=24;" vertex="1" parent="1">
          <mxGeometry x="540" y="20" width="270" height="30" as="geometry" />
        </mxCell>
        <mxCell id="zD45KhNsvAk6A_7PA_Ly-2" style="edgeStyle=orthogonalEdgeStyle;rounded=0;orthogonalLoop=1;jettySize=auto;html=1;exitX=0.5;exitY=1;exitDx=0;exitDy=0;entryX=0.5;entryY=0;entryDx=0;entryDy=0;" edge="1" parent="1" source="A8eU3PPxmW5Uf7VAVFfy-3" target="A8eU3PPxmW5Uf7VAVFfy-4">
          <mxGeometry relative="1" as="geometry" />
        </mxCell>
        <mxCell id="A8eU3PPxmW5Uf7VAVFfy-3" value="ki: üdvözlés" style="shape=parallelogram;perimeter=parallelogramPerimeter;whiteSpace=wrap;html=1;fixedSize=1;" vertex="1" parent="1">
          <mxGeometry x="354" y="160" width="120" height="60" as="geometry" />
        </mxCell>
        <mxCell id="zD45KhNsvAk6A_7PA_Ly-3" style="edgeStyle=orthogonalEdgeStyle;rounded=0;orthogonalLoop=1;jettySize=auto;html=1;exitX=0.5;exitY=1;exitDx=0;exitDy=0;entryX=0.5;entryY=0;entryDx=0;entryDy=0;" edge="1" parent="1" source="A8eU3PPxmW5Uf7VAVFfy-4" target="A8eU3PPxmW5Uf7VAVFfy-5">
          <mxGeometry relative="1" as="geometry" />
        </mxCell>
        <mxCell id="A8eU3PPxmW5Uf7VAVFfy-4" value="bejelentkezés module" style="rounded=0;whiteSpace=wrap;html=1;" vertex="1" parent="1">
          <mxGeometry x="354" y="290" width="120" height="60" as="geometry" />
        </mxCell>
        <mxCell id="zD45KhNsvAk6A_7PA_Ly-4" style="edgeStyle=orthogonalEdgeStyle;rounded=0;orthogonalLoop=1;jettySize=auto;html=1;exitX=0.5;exitY=1;exitDx=0;exitDy=0;entryX=0.5;entryY=0;entryDx=0;entryDy=0;" edge="1" parent="1" source="A8eU3PPxmW5Uf7VAVFfy-5" target="A8eU3PPxmW5Uf7VAVFfy-6">
          <mxGeometry relative="1" as="geometry" />
        </mxCell>
        <mxCell id="zD45KhNsvAk6A_7PA_Ly-7" style="edgeStyle=orthogonalEdgeStyle;rounded=0;orthogonalLoop=1;jettySize=auto;html=1;exitX=0;exitY=0.5;exitDx=0;exitDy=0;" edge="1" parent="1" source="A8eU3PPxmW5Uf7VAVFfy-5">
          <mxGeometry relative="1" as="geometry">
            <mxPoint x="410" y="130" as="targetPoint" />
            <Array as="points">
              <mxPoint x="251" y="460" />
            </Array>
          </mxGeometry>
        </mxCell>
        <mxCell id="A8eU3PPxmW5Uf7VAVFfy-5" value="ki akar lépni a programból?" style="rhombus;whiteSpace=wrap;html=1;" vertex="1" parent="1">
          <mxGeometry x="374" y="420" width="80" height="80" as="geometry" />
        </mxCell>
        <mxCell id="A8eU3PPxmW5Uf7VAVFfy-6" value="stop" style="ellipse;whiteSpace=wrap;html=1;" vertex="1" parent="1">
          <mxGeometry x="354" y="560" width="120" height="80" as="geometry" />
        </mxCell>
        <mxCell id="zD45KhNsvAk6A_7PA_Ly-8" value="n" style="text;html=1;align=center;verticalAlign=middle;resizable=0;points=[];autosize=1;strokeColor=none;fillColor=none;" vertex="1" parent="1">
          <mxGeometry x="345" y="428" width="30" height="30" as="geometry" />
        </mxCell>
        <mxCell id="zD45KhNsvAk6A_7PA_Ly-9" value="i" style="text;html=1;align=center;verticalAlign=middle;resizable=0;points=[];autosize=1;strokeColor=none;fillColor=none;" vertex="1" parent="1">
          <mxGeometry x="385" y="488" width="30" height="30" as="geometry" />
        </mxCell>
      </root>
    </mxGraphModel>
  </diagram>
  <diagram id="HbU_ZFG2f24OkfMn1M6h" name="bejelentkezés-module">
    <mxGraphModel dx="1434" dy="694" grid="1" gridSize="10" guides="1" tooltips="1" connect="1" arrows="1" fold="1" page="1" pageScale="1" pageWidth="827" pageHeight="1169" math="0" shadow="0">
      <root>
        <mxCell id="0" />
        <mxCell id="1" parent="0" />
        <mxCell id="InVNOg3ceATIDGcW4U2E-1" value="Bejelentkezés module" style="text;html=1;align=center;verticalAlign=middle;whiteSpace=wrap;rounded=0;fontSize=24;" vertex="1" parent="1">
          <mxGeometry x="540" y="20" width="270" height="30" as="geometry" />
        </mxCell>
        <mxCell id="lKvj7RA71Fmad2vWLfAW-1" style="edgeStyle=orthogonalEdgeStyle;rounded=0;orthogonalLoop=1;jettySize=auto;html=1;exitX=0.5;exitY=1;exitDx=0;exitDy=0;entryX=0.5;entryY=0;entryDx=0;entryDy=0;" edge="1" parent="1" source="j-w6mHjQY5FFjwirn1u--1" target="j-w6mHjQY5FFjwirn1u--3">
          <mxGeometry relative="1" as="geometry" />
        </mxCell>
        <mxCell id="j-w6mHjQY5FFjwirn1u--1" value="start" style="ellipse;whiteSpace=wrap;html=1;" vertex="1" parent="1">
          <mxGeometry x="380" y="70" width="120" height="80" as="geometry" />
        </mxCell>
        <mxCell id="j-w6mHjQY5FFjwirn1u--2" value="stop" style="ellipse;whiteSpace=wrap;html=1;" vertex="1" parent="1">
          <mxGeometry x="380" y="750" width="120" height="80" as="geometry" />
        </mxCell>
        <mxCell id="lKvj7RA71Fmad2vWLfAW-2" style="edgeStyle=orthogonalEdgeStyle;rounded=0;orthogonalLoop=1;jettySize=auto;html=1;exitX=0.5;exitY=1;exitDx=0;exitDy=0;entryX=0.5;entryY=0;entryDx=0;entryDy=0;" edge="1" parent="1" source="j-w6mHjQY5FFjwirn1u--3" target="j-w6mHjQY5FFjwirn1u--4">
          <mxGeometry relative="1" as="geometry" />
        </mxCell>
        <mxCell id="j-w6mHjQY5FFjwirn1u--3" value="be: email" style="shape=parallelogram;perimeter=parallelogramPerimeter;whiteSpace=wrap;html=1;fixedSize=1;" vertex="1" parent="1">
          <mxGeometry x="380" y="220" width="120" height="60" as="geometry" />
        </mxCell>
        <mxCell id="lKvj7RA71Fmad2vWLfAW-3" style="edgeStyle=orthogonalEdgeStyle;rounded=0;orthogonalLoop=1;jettySize=auto;html=1;exitX=0.5;exitY=1;exitDx=0;exitDy=0;entryX=0.5;entryY=0;entryDx=0;entryDy=0;" edge="1" parent="1" source="j-w6mHjQY5FFjwirn1u--4" target="j-w6mHjQY5FFjwirn1u--5">
          <mxGeometry relative="1" as="geometry" />
        </mxCell>
        <mxCell id="j-w6mHjQY5FFjwirn1u--4" value="be: jelszó" style="shape=parallelogram;perimeter=parallelogramPerimeter;whiteSpace=wrap;html=1;fixedSize=1;" vertex="1" parent="1">
          <mxGeometry x="380" y="350" width="120" height="60" as="geometry" />
        </mxCell>
        <mxCell id="lKvj7RA71Fmad2vWLfAW-4" style="edgeStyle=orthogonalEdgeStyle;rounded=0;orthogonalLoop=1;jettySize=auto;html=1;exitX=0.5;exitY=1;exitDx=0;exitDy=0;entryX=0.5;entryY=0;entryDx=0;entryDy=0;" edge="1" parent="1" source="j-w6mHjQY5FFjwirn1u--5" target="j-w6mHjQY5FFjwirn1u--6">
          <mxGeometry relative="1" as="geometry" />
        </mxCell>
        <mxCell id="lKvj7RA71Fmad2vWLfAW-6" style="edgeStyle=orthogonalEdgeStyle;rounded=0;orthogonalLoop=1;jettySize=auto;html=1;exitX=0;exitY=0.5;exitDx=0;exitDy=0;entryX=1;entryY=0.5;entryDx=0;entryDy=0;" edge="1" parent="1" source="j-w6mHjQY5FFjwirn1u--5" target="j-w6mHjQY5FFjwirn1u--7">
          <mxGeometry relative="1" as="geometry" />
        </mxCell>
        <mxCell id="j-w6mHjQY5FFjwirn1u--5" value="sikeres bejelentkezés?" style="rhombus;whiteSpace=wrap;html=1;" vertex="1" parent="1">
          <mxGeometry x="400" y="480" width="80" height="80" as="geometry" />
        </mxCell>
        <mxCell id="lKvj7RA71Fmad2vWLfAW-5" style="edgeStyle=orthogonalEdgeStyle;rounded=0;orthogonalLoop=1;jettySize=auto;html=1;exitX=0.5;exitY=1;exitDx=0;exitDy=0;entryX=0.5;entryY=0;entryDx=0;entryDy=0;" edge="1" parent="1" source="j-w6mHjQY5FFjwirn1u--6" target="j-w6mHjQY5FFjwirn1u--2">
          <mxGeometry relative="1" as="geometry" />
        </mxCell>
        <mxCell id="j-w6mHjQY5FFjwirn1u--6" value="admin module" style="rounded=0;whiteSpace=wrap;html=1;" vertex="1" parent="1">
          <mxGeometry x="380" y="630" width="120" height="60" as="geometry" />
        </mxCell>
        <mxCell id="lKvj7RA71Fmad2vWLfAW-9" style="edgeStyle=orthogonalEdgeStyle;rounded=0;orthogonalLoop=1;jettySize=auto;html=1;exitX=0.5;exitY=0;exitDx=0;exitDy=0;" edge="1" parent="1" source="j-w6mHjQY5FFjwirn1u--7">
          <mxGeometry relative="1" as="geometry">
            <mxPoint x="430" y="180" as="targetPoint" />
            <Array as="points">
              <mxPoint x="200" y="325" />
              <mxPoint x="201" y="325" />
            </Array>
          </mxGeometry>
        </mxCell>
        <mxCell id="j-w6mHjQY5FFjwirn1u--7" value="ki: hibaüzenet" style="shape=parallelogram;perimeter=parallelogramPerimeter;whiteSpace=wrap;html=1;fixedSize=1;" vertex="1" parent="1">
          <mxGeometry x="140" y="490" width="120" height="60" as="geometry" />
        </mxCell>
        <mxCell id="lKvj7RA71Fmad2vWLfAW-7" value="n" style="text;html=1;align=center;verticalAlign=middle;resizable=0;points=[];autosize=1;strokeColor=none;fillColor=none;" vertex="1" parent="1">
          <mxGeometry x="375" y="488" width="30" height="30" as="geometry" />
        </mxCell>
        <mxCell id="lKvj7RA71Fmad2vWLfAW-8" value="i" style="text;html=1;align=center;verticalAlign=middle;resizable=0;points=[];autosize=1;strokeColor=none;fillColor=none;" vertex="1" parent="1">
          <mxGeometry x="405" y="548" width="30" height="30" as="geometry" />
        </mxCell>
      </root>
    </mxGraphModel>
  </diagram>
  <diagram id="q_3e5TFUYCU229VLgMpq" name="admin module">
    <mxGraphModel dx="1434" dy="694" grid="1" gridSize="10" guides="1" tooltips="1" connect="1" arrows="1" fold="1" page="1" pageScale="1" pageWidth="827" pageHeight="1169" math="0" shadow="0">
      <root>
        <mxCell id="0" />
        <mxCell id="1" parent="0" />
        <mxCell id="l5YD1Jgfn9p22flzJr5u-1" style="edgeStyle=orthogonalEdgeStyle;rounded=0;orthogonalLoop=1;jettySize=auto;html=1;exitX=0.5;exitY=1;exitDx=0;exitDy=0;entryX=0.5;entryY=0;entryDx=0;entryDy=0;" edge="1" parent="1" source="sKiN0i2CdMxV2is-3tmB-1" target="zcIfimkkF1GvI1CF7gl2-2">
          <mxGeometry relative="1" as="geometry" />
        </mxCell>
        <mxCell id="sKiN0i2CdMxV2is-3tmB-1" value="start" style="ellipse;whiteSpace=wrap;html=1;" vertex="1" parent="1">
          <mxGeometry x="354" y="50" width="120" height="80" as="geometry" />
        </mxCell>
        <mxCell id="sKiN0i2CdMxV2is-3tmB-2" value="stop" style="ellipse;whiteSpace=wrap;html=1;" vertex="1" parent="1">
          <mxGeometry x="354" y="650" width="120" height="80" as="geometry" />
        </mxCell>
        <mxCell id="zcIfimkkF1GvI1CF7gl2-1" value="Admin module" style="text;html=1;align=center;verticalAlign=middle;whiteSpace=wrap;rounded=0;fontSize=24;" vertex="1" parent="1">
          <mxGeometry x="540" y="20" width="270" height="30" as="geometry" />
        </mxCell>
        <mxCell id="l5YD1Jgfn9p22flzJr5u-2" style="edgeStyle=orthogonalEdgeStyle;rounded=0;orthogonalLoop=1;jettySize=auto;html=1;exitX=0.5;exitY=1;exitDx=0;exitDy=0;entryX=0.5;entryY=0;entryDx=0;entryDy=0;" edge="1" parent="1" source="zcIfimkkF1GvI1CF7gl2-2" target="zcIfimkkF1GvI1CF7gl2-4">
          <mxGeometry relative="1" as="geometry" />
        </mxCell>
        <mxCell id="zcIfimkkF1GvI1CF7gl2-2" value="ki: admin menu" style="shape=parallelogram;perimeter=parallelogramPerimeter;whiteSpace=wrap;html=1;fixedSize=1;" vertex="1" parent="1">
          <mxGeometry x="354" y="210" width="120" height="60" as="geometry" />
        </mxCell>
        <mxCell id="l5YD1Jgfn9p22flzJr5u-3" style="edgeStyle=orthogonalEdgeStyle;rounded=0;orthogonalLoop=1;jettySize=auto;html=1;exitX=0.5;exitY=1;exitDx=0;exitDy=0;entryX=0.5;entryY=0;entryDx=0;entryDy=0;" edge="1" parent="1" source="zcIfimkkF1GvI1CF7gl2-4" target="zcIfimkkF1GvI1CF7gl2-5">
          <mxGeometry relative="1" as="geometry" />
        </mxCell>
        <mxCell id="zcIfimkkF1GvI1CF7gl2-4" value="felszerelés module" style="rounded=0;whiteSpace=wrap;html=1;" vertex="1" parent="1">
          <mxGeometry x="354" y="350" width="120" height="60" as="geometry" />
        </mxCell>
        <mxCell id="l5YD1Jgfn9p22flzJr5u-4" style="edgeStyle=orthogonalEdgeStyle;rounded=0;orthogonalLoop=1;jettySize=auto;html=1;exitX=1;exitY=0.5;exitDx=0;exitDy=0;entryX=0;entryY=0.5;entryDx=0;entryDy=0;" edge="1" parent="1" source="zcIfimkkF1GvI1CF7gl2-5" target="zcIfimkkF1GvI1CF7gl2-6">
          <mxGeometry relative="1" as="geometry" />
        </mxCell>
        <mxCell id="l5YD1Jgfn9p22flzJr5u-5" style="edgeStyle=orthogonalEdgeStyle;rounded=0;orthogonalLoop=1;jettySize=auto;html=1;exitX=0.5;exitY=1;exitDx=0;exitDy=0;entryX=0.5;entryY=0;entryDx=0;entryDy=0;" edge="1" parent="1" source="zcIfimkkF1GvI1CF7gl2-5" target="sKiN0i2CdMxV2is-3tmB-2">
          <mxGeometry relative="1" as="geometry" />
        </mxCell>
        <mxCell id="zcIfimkkF1GvI1CF7gl2-5" value="kijelentkezik?" style="rhombus;whiteSpace=wrap;html=1;" vertex="1" parent="1">
          <mxGeometry x="374" y="490" width="80" height="80" as="geometry" />
        </mxCell>
        <mxCell id="zcIfimkkF1GvI1CF7gl2-6" value="főprogram" style="rounded=0;whiteSpace=wrap;html=1;" vertex="1" parent="1">
          <mxGeometry x="550" y="500" width="120" height="60" as="geometry" />
        </mxCell>
        <mxCell id="l5YD1Jgfn9p22flzJr5u-6" value="i" style="text;html=1;align=center;verticalAlign=middle;resizable=0;points=[];autosize=1;strokeColor=none;fillColor=none;" vertex="1" parent="1">
          <mxGeometry x="445" y="498" width="30" height="30" as="geometry" />
        </mxCell>
        <mxCell id="l5YD1Jgfn9p22flzJr5u-7" value="n" style="text;html=1;align=center;verticalAlign=middle;resizable=0;points=[];autosize=1;strokeColor=none;fillColor=none;" vertex="1" parent="1">
          <mxGeometry x="415" y="558" width="30" height="30" as="geometry" />
        </mxCell>
      </root>
    </mxGraphModel>
  </diagram>
  <diagram id="w7QCG6e2hXuYYaBeO0QM" name="felszerelések module">
    <mxGraphModel dx="1434" dy="694" grid="1" gridSize="10" guides="1" tooltips="1" connect="1" arrows="1" fold="1" page="1" pageScale="1" pageWidth="827" pageHeight="1169" math="0" shadow="0">
      <root>
        <mxCell id="0" />
        <mxCell id="1" parent="0" />
        <mxCell id="Al0G-3qn0gsX1tbESNY6-1" value="Felszerelések module" style="text;html=1;align=center;verticalAlign=middle;whiteSpace=wrap;rounded=0;fontSize=24;" vertex="1" parent="1">
          <mxGeometry x="540" y="20" width="270" height="30" as="geometry" />
        </mxCell>
        <mxCell id="TjlNHiuVMnY8q0CUTNuM-2" style="edgeStyle=orthogonalEdgeStyle;rounded=0;orthogonalLoop=1;jettySize=auto;html=1;exitX=0.5;exitY=1;exitDx=0;exitDy=0;entryX=0.5;entryY=0;entryDx=0;entryDy=0;" edge="1" parent="1" source="Al0G-3qn0gsX1tbESNY6-2" target="Al0G-3qn0gsX1tbESNY6-5">
          <mxGeometry relative="1" as="geometry" />
        </mxCell>
        <mxCell id="Al0G-3qn0gsX1tbESNY6-2" value="ki: felszerelés lista" style="shape=parallelogram;perimeter=parallelogramPerimeter;whiteSpace=wrap;html=1;fixedSize=1;" vertex="1" parent="1">
          <mxGeometry x="354" y="230" width="120" height="60" as="geometry" />
        </mxCell>
        <mxCell id="TjlNHiuVMnY8q0CUTNuM-1" style="edgeStyle=orthogonalEdgeStyle;rounded=0;orthogonalLoop=1;jettySize=auto;html=1;exitX=0.5;exitY=1;exitDx=0;exitDy=0;entryX=0.5;entryY=0;entryDx=0;entryDy=0;" edge="1" parent="1" source="Al0G-3qn0gsX1tbESNY6-3" target="Al0G-3qn0gsX1tbESNY6-2">
          <mxGeometry relative="1" as="geometry" />
        </mxCell>
        <mxCell id="Al0G-3qn0gsX1tbESNY6-3" value="start" style="ellipse;whiteSpace=wrap;html=1;" vertex="1" parent="1">
          <mxGeometry x="354" y="80" width="120" height="80" as="geometry" />
        </mxCell>
        <mxCell id="Al0G-3qn0gsX1tbESNY6-4" value="stop" style="ellipse;whiteSpace=wrap;html=1;" vertex="1" parent="1">
          <mxGeometry x="354" y="950" width="120" height="80" as="geometry" />
        </mxCell>
        <mxCell id="TjlNHiuVMnY8q0CUTNuM-3" style="edgeStyle=orthogonalEdgeStyle;rounded=0;orthogonalLoop=1;jettySize=auto;html=1;exitX=0.5;exitY=1;exitDx=0;exitDy=0;entryX=0.5;entryY=0;entryDx=0;entryDy=0;" edge="1" parent="1" source="Al0G-3qn0gsX1tbESNY6-5" target="Al0G-3qn0gsX1tbESNY6-7">
          <mxGeometry relative="1" as="geometry" />
        </mxCell>
        <mxCell id="TjlNHiuVMnY8q0CUTNuM-7" style="edgeStyle=orthogonalEdgeStyle;rounded=0;orthogonalLoop=1;jettySize=auto;html=1;exitX=1;exitY=0.5;exitDx=0;exitDy=0;entryX=0;entryY=0.5;entryDx=0;entryDy=0;" edge="1" parent="1" source="Al0G-3qn0gsX1tbESNY6-5" target="Al0G-3qn0gsX1tbESNY6-6">
          <mxGeometry relative="1" as="geometry" />
        </mxCell>
        <mxCell id="Al0G-3qn0gsX1tbESNY6-5" value="akarja a listát frissíteni?" style="rhombus;whiteSpace=wrap;html=1;" vertex="1" parent="1">
          <mxGeometry x="374" y="350" width="80" height="80" as="geometry" />
        </mxCell>
        <mxCell id="TjlNHiuVMnY8q0CUTNuM-20" style="edgeStyle=orthogonalEdgeStyle;rounded=0;orthogonalLoop=1;jettySize=auto;html=1;exitX=1;exitY=0.5;exitDx=0;exitDy=0;" edge="1" parent="1" source="Al0G-3qn0gsX1tbESNY6-6" target="TjlNHiuVMnY8q0CUTNuM-19">
          <mxGeometry relative="1" as="geometry" />
        </mxCell>
        <mxCell id="Al0G-3qn0gsX1tbESNY6-6" value="friss lista letöltése a szerverről" style="rounded=0;whiteSpace=wrap;html=1;" vertex="1" parent="1">
          <mxGeometry x="560" y="360" width="120" height="60" as="geometry" />
        </mxCell>
        <mxCell id="TjlNHiuVMnY8q0CUTNuM-4" style="edgeStyle=orthogonalEdgeStyle;rounded=0;orthogonalLoop=1;jettySize=auto;html=1;exitX=0.5;exitY=1;exitDx=0;exitDy=0;entryX=0.5;entryY=0;entryDx=0;entryDy=0;" edge="1" parent="1" source="Al0G-3qn0gsX1tbESNY6-7" target="Al0G-3qn0gsX1tbESNY6-9">
          <mxGeometry relative="1" as="geometry" />
        </mxCell>
        <mxCell id="TjlNHiuVMnY8q0CUTNuM-8" style="edgeStyle=orthogonalEdgeStyle;rounded=0;orthogonalLoop=1;jettySize=auto;html=1;exitX=1;exitY=0.5;exitDx=0;exitDy=0;entryX=0;entryY=0.5;entryDx=0;entryDy=0;" edge="1" parent="1" source="Al0G-3qn0gsX1tbESNY6-7" target="Al0G-3qn0gsX1tbESNY6-8">
          <mxGeometry relative="1" as="geometry" />
        </mxCell>
        <mxCell id="Al0G-3qn0gsX1tbESNY6-7" value="akarja szerkeszteni a kiválasztott elemet?" style="rhombus;whiteSpace=wrap;html=1;" vertex="1" parent="1">
          <mxGeometry x="374" y="530" width="80" height="80" as="geometry" />
        </mxCell>
        <mxCell id="TjlNHiuVMnY8q0CUTNuM-21" style="edgeStyle=orthogonalEdgeStyle;rounded=0;orthogonalLoop=1;jettySize=auto;html=1;exitX=1;exitY=0.5;exitDx=0;exitDy=0;entryX=0.5;entryY=1;entryDx=0;entryDy=0;" edge="1" parent="1" source="Al0G-3qn0gsX1tbESNY6-8" target="TjlNHiuVMnY8q0CUTNuM-19">
          <mxGeometry relative="1" as="geometry" />
        </mxCell>
        <mxCell id="Al0G-3qn0gsX1tbESNY6-8" value="felszerelés szerkesztés module" style="rounded=0;whiteSpace=wrap;html=1;" vertex="1" parent="1">
          <mxGeometry x="560" y="540" width="120" height="60" as="geometry" />
        </mxCell>
        <mxCell id="TjlNHiuVMnY8q0CUTNuM-5" style="edgeStyle=orthogonalEdgeStyle;rounded=0;orthogonalLoop=1;jettySize=auto;html=1;exitX=0.5;exitY=1;exitDx=0;exitDy=0;entryX=0.5;entryY=0;entryDx=0;entryDy=0;" edge="1" parent="1" source="Al0G-3qn0gsX1tbESNY6-9" target="Al0G-3qn0gsX1tbESNY6-11">
          <mxGeometry relative="1" as="geometry" />
        </mxCell>
        <mxCell id="TjlNHiuVMnY8q0CUTNuM-9" style="edgeStyle=orthogonalEdgeStyle;rounded=0;orthogonalLoop=1;jettySize=auto;html=1;exitX=1;exitY=0.5;exitDx=0;exitDy=0;entryX=0;entryY=0.5;entryDx=0;entryDy=0;" edge="1" parent="1" source="Al0G-3qn0gsX1tbESNY6-9" target="Al0G-3qn0gsX1tbESNY6-10">
          <mxGeometry relative="1" as="geometry" />
        </mxCell>
        <mxCell id="Al0G-3qn0gsX1tbESNY6-9" value="akar új felszerelést létrehozni?" style="rhombus;whiteSpace=wrap;html=1;" vertex="1" parent="1">
          <mxGeometry x="374" y="680" width="80" height="80" as="geometry" />
        </mxCell>
        <mxCell id="TjlNHiuVMnY8q0CUTNuM-22" style="edgeStyle=orthogonalEdgeStyle;rounded=0;orthogonalLoop=1;jettySize=auto;html=1;exitX=1;exitY=0.5;exitDx=0;exitDy=0;entryX=0.5;entryY=1;entryDx=0;entryDy=0;" edge="1" parent="1" source="Al0G-3qn0gsX1tbESNY6-10" target="TjlNHiuVMnY8q0CUTNuM-19">
          <mxGeometry relative="1" as="geometry">
            <mxPoint x="740" y="270" as="targetPoint" />
          </mxGeometry>
        </mxCell>
        <mxCell id="Al0G-3qn0gsX1tbESNY6-10" value="felszerelés létrehozás module" style="rounded=0;whiteSpace=wrap;html=1;" vertex="1" parent="1">
          <mxGeometry x="560" y="690" width="120" height="60" as="geometry" />
        </mxCell>
        <mxCell id="TjlNHiuVMnY8q0CUTNuM-6" style="edgeStyle=orthogonalEdgeStyle;rounded=0;orthogonalLoop=1;jettySize=auto;html=1;exitX=0.5;exitY=1;exitDx=0;exitDy=0;entryX=0.5;entryY=0;entryDx=0;entryDy=0;" edge="1" parent="1" source="Al0G-3qn0gsX1tbESNY6-11" target="Al0G-3qn0gsX1tbESNY6-4">
          <mxGeometry relative="1" as="geometry" />
        </mxCell>
        <mxCell id="TjlNHiuVMnY8q0CUTNuM-10" style="edgeStyle=orthogonalEdgeStyle;rounded=0;orthogonalLoop=1;jettySize=auto;html=1;exitX=1;exitY=0.5;exitDx=0;exitDy=0;entryX=0;entryY=0.5;entryDx=0;entryDy=0;" edge="1" parent="1" source="Al0G-3qn0gsX1tbESNY6-11" target="Al0G-3qn0gsX1tbESNY6-12">
          <mxGeometry relative="1" as="geometry" />
        </mxCell>
        <mxCell id="Al0G-3qn0gsX1tbESNY6-11" value="akarja törölni a kiválasztott elemet?" style="rhombus;whiteSpace=wrap;html=1;" vertex="1" parent="1">
          <mxGeometry x="374" y="810" width="80" height="80" as="geometry" />
        </mxCell>
        <mxCell id="TjlNHiuVMnY8q0CUTNuM-23" style="edgeStyle=orthogonalEdgeStyle;rounded=0;orthogonalLoop=1;jettySize=auto;html=1;exitX=1;exitY=0.5;exitDx=0;exitDy=0;entryX=0.5;entryY=1;entryDx=0;entryDy=0;" edge="1" parent="1" source="Al0G-3qn0gsX1tbESNY6-12" target="TjlNHiuVMnY8q0CUTNuM-19">
          <mxGeometry relative="1" as="geometry" />
        </mxCell>
        <mxCell id="Al0G-3qn0gsX1tbESNY6-12" value="törlés module" style="rounded=0;whiteSpace=wrap;html=1;" vertex="1" parent="1">
          <mxGeometry x="560" y="820" width="120" height="60" as="geometry" />
        </mxCell>
        <mxCell id="TjlNHiuVMnY8q0CUTNuM-11" value="i" style="text;html=1;align=center;verticalAlign=middle;resizable=0;points=[];autosize=1;strokeColor=none;fillColor=none;" vertex="1" parent="1">
          <mxGeometry x="445" y="358" width="30" height="30" as="geometry" />
        </mxCell>
        <mxCell id="TjlNHiuVMnY8q0CUTNuM-12" value="n" style="text;html=1;align=center;verticalAlign=middle;resizable=0;points=[];autosize=1;strokeColor=none;fillColor=none;" vertex="1" parent="1">
          <mxGeometry x="415" y="408" width="30" height="30" as="geometry" />
        </mxCell>
        <mxCell id="TjlNHiuVMnY8q0CUTNuM-13" value="i" style="text;html=1;align=center;verticalAlign=middle;resizable=0;points=[];autosize=1;strokeColor=none;fillColor=none;" vertex="1" parent="1">
          <mxGeometry x="445" y="528" width="30" height="30" as="geometry" />
        </mxCell>
        <mxCell id="TjlNHiuVMnY8q0CUTNuM-14" value="n" style="text;html=1;align=center;verticalAlign=middle;resizable=0;points=[];autosize=1;strokeColor=none;fillColor=none;" vertex="1" parent="1">
          <mxGeometry x="424" y="600" width="30" height="30" as="geometry" />
        </mxCell>
        <mxCell id="TjlNHiuVMnY8q0CUTNuM-15" value="i" style="text;html=1;align=center;verticalAlign=middle;resizable=0;points=[];autosize=1;strokeColor=none;fillColor=none;" vertex="1" parent="1">
          <mxGeometry x="435" y="678" width="30" height="30" as="geometry" />
        </mxCell>
        <mxCell id="TjlNHiuVMnY8q0CUTNuM-16" value="n" style="text;html=1;align=center;verticalAlign=middle;resizable=0;points=[];autosize=1;strokeColor=none;fillColor=none;" vertex="1" parent="1">
          <mxGeometry x="425" y="738" width="30" height="30" as="geometry" />
        </mxCell>
        <mxCell id="TjlNHiuVMnY8q0CUTNuM-17" value="i" style="text;html=1;align=center;verticalAlign=middle;resizable=0;points=[];autosize=1;strokeColor=none;fillColor=none;" vertex="1" parent="1">
          <mxGeometry x="445" y="818" width="30" height="30" as="geometry" />
        </mxCell>
        <mxCell id="TjlNHiuVMnY8q0CUTNuM-18" value="n" style="text;html=1;align=center;verticalAlign=middle;resizable=0;points=[];autosize=1;strokeColor=none;fillColor=none;" vertex="1" parent="1">
          <mxGeometry x="435" y="880" width="30" height="30" as="geometry" />
        </mxCell>
        <mxCell id="TjlNHiuVMnY8q0CUTNuM-24" style="edgeStyle=orthogonalEdgeStyle;rounded=0;orthogonalLoop=1;jettySize=auto;html=1;exitX=0;exitY=0.5;exitDx=0;exitDy=0;" edge="1" parent="1" source="TjlNHiuVMnY8q0CUTNuM-19">
          <mxGeometry relative="1" as="geometry">
            <mxPoint x="430" y="190" as="targetPoint" />
          </mxGeometry>
        </mxCell>
        <mxCell id="TjlNHiuVMnY8q0CUTNuM-19" value="" style="ellipse;whiteSpace=wrap;html=1;aspect=fixed;" vertex="1" parent="1">
          <mxGeometry x="730" y="180" width="20" height="20" as="geometry" />
        </mxCell>
      </root>
    </mxGraphModel>
  </diagram>
  <diagram name="felhasználók module" id="wW8-FcTkkxWm5fp8w_yq">
    <mxGraphModel dx="1434" dy="694" grid="1" gridSize="10" guides="1" tooltips="1" connect="1" arrows="1" fold="1" page="1" pageScale="1" pageWidth="827" pageHeight="1169" math="0" shadow="0">
      <root>
        <mxCell id="dEXb3nPMZq2iawgFBoPZ-0" />
        <mxCell id="dEXb3nPMZq2iawgFBoPZ-1" parent="dEXb3nPMZq2iawgFBoPZ-0" />
        <mxCell id="dEXb3nPMZq2iawgFBoPZ-2" value="Felhasználók module" style="text;html=1;align=center;verticalAlign=middle;whiteSpace=wrap;rounded=0;fontSize=24;" vertex="1" parent="dEXb3nPMZq2iawgFBoPZ-1">
          <mxGeometry x="540" y="20" width="270" height="30" as="geometry" />
        </mxCell>
        <mxCell id="0S_g3-A4RY_VJqbpwJmD-1" style="edgeStyle=orthogonalEdgeStyle;rounded=0;orthogonalLoop=1;jettySize=auto;html=1;exitX=0.5;exitY=1;exitDx=0;exitDy=0;entryX=0.5;entryY=0;entryDx=0;entryDy=0;" edge="1" parent="dEXb3nPMZq2iawgFBoPZ-1" source="dEXb3nPMZq2iawgFBoPZ-3" target="dEXb3nPMZq2iawgFBoPZ-6">
          <mxGeometry relative="1" as="geometry" />
        </mxCell>
        <mxCell id="dEXb3nPMZq2iawgFBoPZ-3" value="ki: felhasználók lista" style="shape=parallelogram;perimeter=parallelogramPerimeter;whiteSpace=wrap;html=1;fixedSize=1;" vertex="1" parent="dEXb3nPMZq2iawgFBoPZ-1">
          <mxGeometry x="354" y="230" width="120" height="60" as="geometry" />
        </mxCell>
        <mxCell id="0S_g3-A4RY_VJqbpwJmD-0" style="edgeStyle=orthogonalEdgeStyle;rounded=0;orthogonalLoop=1;jettySize=auto;html=1;exitX=0.5;exitY=1;exitDx=0;exitDy=0;entryX=0.5;entryY=0;entryDx=0;entryDy=0;" edge="1" parent="dEXb3nPMZq2iawgFBoPZ-1" source="dEXb3nPMZq2iawgFBoPZ-4" target="dEXb3nPMZq2iawgFBoPZ-3">
          <mxGeometry relative="1" as="geometry" />
        </mxCell>
        <mxCell id="dEXb3nPMZq2iawgFBoPZ-4" value="start" style="ellipse;whiteSpace=wrap;html=1;" vertex="1" parent="dEXb3nPMZq2iawgFBoPZ-1">
          <mxGeometry x="354" y="80" width="120" height="80" as="geometry" />
        </mxCell>
        <mxCell id="dEXb3nPMZq2iawgFBoPZ-5" value="stop" style="ellipse;whiteSpace=wrap;html=1;" vertex="1" parent="dEXb3nPMZq2iawgFBoPZ-1">
          <mxGeometry x="354" y="950" width="120" height="80" as="geometry" />
        </mxCell>
        <mxCell id="0S_g3-A4RY_VJqbpwJmD-2" style="edgeStyle=orthogonalEdgeStyle;rounded=0;orthogonalLoop=1;jettySize=auto;html=1;exitX=1;exitY=0.5;exitDx=0;exitDy=0;entryX=0;entryY=0.5;entryDx=0;entryDy=0;" edge="1" parent="dEXb3nPMZq2iawgFBoPZ-1" source="dEXb3nPMZq2iawgFBoPZ-6" target="dEXb3nPMZq2iawgFBoPZ-7">
          <mxGeometry relative="1" as="geometry" />
        </mxCell>
        <mxCell id="cpysTi448VeMD8HsVSoX-0" style="edgeStyle=orthogonalEdgeStyle;rounded=0;orthogonalLoop=1;jettySize=auto;html=1;exitX=0.5;exitY=1;exitDx=0;exitDy=0;entryX=0.5;entryY=0;entryDx=0;entryDy=0;" edge="1" parent="dEXb3nPMZq2iawgFBoPZ-1" source="dEXb3nPMZq2iawgFBoPZ-6" target="dEXb3nPMZq2iawgFBoPZ-8">
          <mxGeometry relative="1" as="geometry" />
        </mxCell>
        <mxCell id="dEXb3nPMZq2iawgFBoPZ-6" value="akarja a listát frissíteni?" style="rhombus;whiteSpace=wrap;html=1;" vertex="1" parent="dEXb3nPMZq2iawgFBoPZ-1">
          <mxGeometry x="374" y="350" width="80" height="80" as="geometry" />
        </mxCell>
        <mxCell id="cpysTi448VeMD8HsVSoX-8" style="edgeStyle=orthogonalEdgeStyle;rounded=0;orthogonalLoop=1;jettySize=auto;html=1;exitX=1;exitY=0.5;exitDx=0;exitDy=0;entryX=0.5;entryY=1;entryDx=0;entryDy=0;" edge="1" parent="dEXb3nPMZq2iawgFBoPZ-1" source="dEXb3nPMZq2iawgFBoPZ-7" target="cpysTi448VeMD8HsVSoX-7">
          <mxGeometry relative="1" as="geometry" />
        </mxCell>
        <mxCell id="dEXb3nPMZq2iawgFBoPZ-7" value="friss lista letöltése a szerverről" style="rounded=0;whiteSpace=wrap;html=1;" vertex="1" parent="dEXb3nPMZq2iawgFBoPZ-1">
          <mxGeometry x="560" y="360" width="120" height="60" as="geometry" />
        </mxCell>
        <mxCell id="cpysTi448VeMD8HsVSoX-1" style="edgeStyle=orthogonalEdgeStyle;rounded=0;orthogonalLoop=1;jettySize=auto;html=1;exitX=1;exitY=0.5;exitDx=0;exitDy=0;entryX=0;entryY=0.5;entryDx=0;entryDy=0;" edge="1" parent="dEXb3nPMZq2iawgFBoPZ-1" source="dEXb3nPMZq2iawgFBoPZ-8" target="dEXb3nPMZq2iawgFBoPZ-9">
          <mxGeometry relative="1" as="geometry" />
        </mxCell>
        <mxCell id="cpysTi448VeMD8HsVSoX-2" style="edgeStyle=orthogonalEdgeStyle;rounded=0;orthogonalLoop=1;jettySize=auto;html=1;exitX=0.5;exitY=1;exitDx=0;exitDy=0;entryX=0.5;entryY=0;entryDx=0;entryDy=0;" edge="1" parent="dEXb3nPMZq2iawgFBoPZ-1" source="dEXb3nPMZq2iawgFBoPZ-8" target="dEXb3nPMZq2iawgFBoPZ-10">
          <mxGeometry relative="1" as="geometry" />
        </mxCell>
        <mxCell id="dEXb3nPMZq2iawgFBoPZ-8" value="akarja szerkeszteni a kiválasztott elemet?" style="rhombus;whiteSpace=wrap;html=1;" vertex="1" parent="dEXb3nPMZq2iawgFBoPZ-1">
          <mxGeometry x="374" y="530" width="80" height="80" as="geometry" />
        </mxCell>
        <mxCell id="cpysTi448VeMD8HsVSoX-9" style="edgeStyle=orthogonalEdgeStyle;rounded=0;orthogonalLoop=1;jettySize=auto;html=1;exitX=1;exitY=0.5;exitDx=0;exitDy=0;entryX=0.5;entryY=1;entryDx=0;entryDy=0;" edge="1" parent="dEXb3nPMZq2iawgFBoPZ-1" source="dEXb3nPMZq2iawgFBoPZ-9" target="cpysTi448VeMD8HsVSoX-7">
          <mxGeometry relative="1" as="geometry">
            <mxPoint x="780" y="360" as="targetPoint" />
          </mxGeometry>
        </mxCell>
        <mxCell id="dEXb3nPMZq2iawgFBoPZ-9" value="felhasználó szerkesztés module" style="rounded=0;whiteSpace=wrap;html=1;" vertex="1" parent="dEXb3nPMZq2iawgFBoPZ-1">
          <mxGeometry x="560" y="540" width="120" height="60" as="geometry" />
        </mxCell>
        <mxCell id="cpysTi448VeMD8HsVSoX-3" style="edgeStyle=orthogonalEdgeStyle;rounded=0;orthogonalLoop=1;jettySize=auto;html=1;exitX=1;exitY=0.5;exitDx=0;exitDy=0;entryX=0;entryY=0.5;entryDx=0;entryDy=0;" edge="1" parent="dEXb3nPMZq2iawgFBoPZ-1" source="dEXb3nPMZq2iawgFBoPZ-10" target="dEXb3nPMZq2iawgFBoPZ-11">
          <mxGeometry relative="1" as="geometry" />
        </mxCell>
        <mxCell id="cpysTi448VeMD8HsVSoX-4" style="edgeStyle=orthogonalEdgeStyle;rounded=0;orthogonalLoop=1;jettySize=auto;html=1;exitX=0.5;exitY=1;exitDx=0;exitDy=0;entryX=0.5;entryY=0;entryDx=0;entryDy=0;" edge="1" parent="dEXb3nPMZq2iawgFBoPZ-1" source="dEXb3nPMZq2iawgFBoPZ-10" target="dEXb3nPMZq2iawgFBoPZ-12">
          <mxGeometry relative="1" as="geometry" />
        </mxCell>
        <mxCell id="dEXb3nPMZq2iawgFBoPZ-10" value="akar új felhasználót létrehozni?" style="rhombus;whiteSpace=wrap;html=1;" vertex="1" parent="dEXb3nPMZq2iawgFBoPZ-1">
          <mxGeometry x="374" y="680" width="80" height="80" as="geometry" />
        </mxCell>
        <mxCell id="cpysTi448VeMD8HsVSoX-10" style="edgeStyle=orthogonalEdgeStyle;rounded=0;orthogonalLoop=1;jettySize=auto;html=1;exitX=1;exitY=0.5;exitDx=0;exitDy=0;entryX=0.5;entryY=1;entryDx=0;entryDy=0;" edge="1" parent="dEXb3nPMZq2iawgFBoPZ-1" source="dEXb3nPMZq2iawgFBoPZ-11" target="cpysTi448VeMD8HsVSoX-7">
          <mxGeometry relative="1" as="geometry" />
        </mxCell>
        <mxCell id="dEXb3nPMZq2iawgFBoPZ-11" value="felhasználó létrehozás module" style="rounded=0;whiteSpace=wrap;html=1;" vertex="1" parent="dEXb3nPMZq2iawgFBoPZ-1">
          <mxGeometry x="560" y="690" width="120" height="60" as="geometry" />
        </mxCell>
        <mxCell id="cpysTi448VeMD8HsVSoX-5" style="edgeStyle=orthogonalEdgeStyle;rounded=0;orthogonalLoop=1;jettySize=auto;html=1;exitX=1;exitY=0.5;exitDx=0;exitDy=0;entryX=0;entryY=0.5;entryDx=0;entryDy=0;" edge="1" parent="dEXb3nPMZq2iawgFBoPZ-1" source="dEXb3nPMZq2iawgFBoPZ-12" target="dEXb3nPMZq2iawgFBoPZ-13">
          <mxGeometry relative="1" as="geometry" />
        </mxCell>
        <mxCell id="cpysTi448VeMD8HsVSoX-6" style="edgeStyle=orthogonalEdgeStyle;rounded=0;orthogonalLoop=1;jettySize=auto;html=1;exitX=0.5;exitY=1;exitDx=0;exitDy=0;entryX=0.5;entryY=0;entryDx=0;entryDy=0;" edge="1" parent="dEXb3nPMZq2iawgFBoPZ-1" source="dEXb3nPMZq2iawgFBoPZ-12" target="dEXb3nPMZq2iawgFBoPZ-5">
          <mxGeometry relative="1" as="geometry" />
        </mxCell>
        <mxCell id="dEXb3nPMZq2iawgFBoPZ-12" value="akarja törölni a kiválasztott elemet?" style="rhombus;whiteSpace=wrap;html=1;" vertex="1" parent="dEXb3nPMZq2iawgFBoPZ-1">
          <mxGeometry x="374" y="810" width="80" height="80" as="geometry" />
        </mxCell>
        <mxCell id="cpysTi448VeMD8HsVSoX-11" style="edgeStyle=orthogonalEdgeStyle;rounded=0;orthogonalLoop=1;jettySize=auto;html=1;exitX=1;exitY=0.5;exitDx=0;exitDy=0;entryX=0.5;entryY=1;entryDx=0;entryDy=0;" edge="1" parent="dEXb3nPMZq2iawgFBoPZ-1" source="dEXb3nPMZq2iawgFBoPZ-13" target="cpysTi448VeMD8HsVSoX-7">
          <mxGeometry relative="1" as="geometry" />
        </mxCell>
        <mxCell id="dEXb3nPMZq2iawgFBoPZ-13" value="törlés module" style="rounded=0;whiteSpace=wrap;html=1;" vertex="1" parent="dEXb3nPMZq2iawgFBoPZ-1">
          <mxGeometry x="560" y="820" width="120" height="60" as="geometry" />
        </mxCell>
        <mxCell id="cpysTi448VeMD8HsVSoX-12" style="edgeStyle=orthogonalEdgeStyle;rounded=0;orthogonalLoop=1;jettySize=auto;html=1;exitX=0;exitY=0.5;exitDx=0;exitDy=0;" edge="1" parent="dEXb3nPMZq2iawgFBoPZ-1" source="cpysTi448VeMD8HsVSoX-7">
          <mxGeometry relative="1" as="geometry">
            <mxPoint x="420" y="190" as="targetPoint" />
          </mxGeometry>
        </mxCell>
        <mxCell id="cpysTi448VeMD8HsVSoX-7" value="" style="ellipse;whiteSpace=wrap;html=1;aspect=fixed;" vertex="1" parent="dEXb3nPMZq2iawgFBoPZ-1">
          <mxGeometry x="740" y="180" width="20" height="20" as="geometry" />
        </mxCell>
        <mxCell id="cpysTi448VeMD8HsVSoX-13" value="i" style="text;html=1;align=center;verticalAlign=middle;resizable=0;points=[];autosize=1;strokeColor=none;fillColor=none;" vertex="1" parent="dEXb3nPMZq2iawgFBoPZ-1">
          <mxGeometry x="445" y="358" width="30" height="30" as="geometry" />
        </mxCell>
        <mxCell id="cpysTi448VeMD8HsVSoX-14" value="n" style="text;html=1;align=center;verticalAlign=middle;resizable=0;points=[];autosize=1;strokeColor=none;fillColor=none;" vertex="1" parent="dEXb3nPMZq2iawgFBoPZ-1">
          <mxGeometry x="415" y="418" width="30" height="30" as="geometry" />
        </mxCell>
        <mxCell id="cpysTi448VeMD8HsVSoX-15" value="i" style="text;html=1;align=center;verticalAlign=middle;resizable=0;points=[];autosize=1;strokeColor=none;fillColor=none;" vertex="1" parent="dEXb3nPMZq2iawgFBoPZ-1">
          <mxGeometry x="445" y="538" width="30" height="30" as="geometry" />
        </mxCell>
        <mxCell id="cpysTi448VeMD8HsVSoX-16" value="n" style="text;html=1;align=center;verticalAlign=middle;resizable=0;points=[];autosize=1;strokeColor=none;fillColor=none;" vertex="1" parent="dEXb3nPMZq2iawgFBoPZ-1">
          <mxGeometry x="415" y="598" width="30" height="30" as="geometry" />
        </mxCell>
        <mxCell id="cpysTi448VeMD8HsVSoX-17" value="i" style="text;html=1;align=center;verticalAlign=middle;resizable=0;points=[];autosize=1;strokeColor=none;fillColor=none;" vertex="1" parent="dEXb3nPMZq2iawgFBoPZ-1">
          <mxGeometry x="445" y="688" width="30" height="30" as="geometry" />
        </mxCell>
        <mxCell id="cpysTi448VeMD8HsVSoX-18" value="n" style="text;html=1;align=center;verticalAlign=middle;resizable=0;points=[];autosize=1;strokeColor=none;fillColor=none;" vertex="1" parent="dEXb3nPMZq2iawgFBoPZ-1">
          <mxGeometry x="415" y="748" width="30" height="30" as="geometry" />
        </mxCell>
        <mxCell id="cpysTi448VeMD8HsVSoX-19" value="i" style="text;html=1;align=center;verticalAlign=middle;resizable=0;points=[];autosize=1;strokeColor=none;fillColor=none;" vertex="1" parent="dEXb3nPMZq2iawgFBoPZ-1">
          <mxGeometry x="445" y="808" width="30" height="30" as="geometry" />
        </mxCell>
        <mxCell id="cpysTi448VeMD8HsVSoX-20" value="n" style="text;html=1;align=center;verticalAlign=middle;resizable=0;points=[];autosize=1;strokeColor=none;fillColor=none;" vertex="1" parent="dEXb3nPMZq2iawgFBoPZ-1">
          <mxGeometry x="424" y="870" width="30" height="30" as="geometry" />
        </mxCell>
      </root>
    </mxGraphModel>
  </diagram>
  <diagram name="foglalások module" id="zrBb1Uyh_qzNzhitQNk4">
    <mxGraphModel dx="1434" dy="694" grid="1" gridSize="10" guides="1" tooltips="1" connect="1" arrows="1" fold="1" page="1" pageScale="1" pageWidth="827" pageHeight="1169" math="0" shadow="0">
      <root>
        <mxCell id="SmW42_UGa75kEuI0wU8R-0" />
        <mxCell id="SmW42_UGa75kEuI0wU8R-1" parent="SmW42_UGa75kEuI0wU8R-0" />
        <mxCell id="SmW42_UGa75kEuI0wU8R-2" value="Foglalások module" style="text;html=1;align=center;verticalAlign=middle;whiteSpace=wrap;rounded=0;fontSize=24;" vertex="1" parent="SmW42_UGa75kEuI0wU8R-1">
          <mxGeometry x="540" y="20" width="270" height="30" as="geometry" />
        </mxCell>
        <mxCell id="M7tBpnwQg9bpqLQ-gO83-1" style="edgeStyle=orthogonalEdgeStyle;rounded=0;orthogonalLoop=1;jettySize=auto;html=1;exitX=0.5;exitY=1;exitDx=0;exitDy=0;entryX=0.5;entryY=0;entryDx=0;entryDy=0;" edge="1" parent="SmW42_UGa75kEuI0wU8R-1" source="SmW42_UGa75kEuI0wU8R-3" target="SmW42_UGa75kEuI0wU8R-6">
          <mxGeometry relative="1" as="geometry" />
        </mxCell>
        <mxCell id="SmW42_UGa75kEuI0wU8R-3" value="ki: foglalások lista" style="shape=parallelogram;perimeter=parallelogramPerimeter;whiteSpace=wrap;html=1;fixedSize=1;" vertex="1" parent="SmW42_UGa75kEuI0wU8R-1">
          <mxGeometry x="354" y="230" width="120" height="60" as="geometry" />
        </mxCell>
        <mxCell id="M7tBpnwQg9bpqLQ-gO83-0" style="edgeStyle=orthogonalEdgeStyle;rounded=0;orthogonalLoop=1;jettySize=auto;html=1;exitX=0.5;exitY=1;exitDx=0;exitDy=0;entryX=0.5;entryY=0;entryDx=0;entryDy=0;" edge="1" parent="SmW42_UGa75kEuI0wU8R-1" source="SmW42_UGa75kEuI0wU8R-4" target="SmW42_UGa75kEuI0wU8R-3">
          <mxGeometry relative="1" as="geometry" />
        </mxCell>
        <mxCell id="SmW42_UGa75kEuI0wU8R-4" value="start" style="ellipse;whiteSpace=wrap;html=1;" vertex="1" parent="SmW42_UGa75kEuI0wU8R-1">
          <mxGeometry x="354" y="80" width="120" height="80" as="geometry" />
        </mxCell>
        <mxCell id="SmW42_UGa75kEuI0wU8R-5" value="stop" style="ellipse;whiteSpace=wrap;html=1;" vertex="1" parent="SmW42_UGa75kEuI0wU8R-1">
          <mxGeometry x="354" y="830" width="120" height="80" as="geometry" />
        </mxCell>
        <mxCell id="M7tBpnwQg9bpqLQ-gO83-2" style="edgeStyle=orthogonalEdgeStyle;rounded=0;orthogonalLoop=1;jettySize=auto;html=1;exitX=1;exitY=0.5;exitDx=0;exitDy=0;entryX=0;entryY=0.5;entryDx=0;entryDy=0;" edge="1" parent="SmW42_UGa75kEuI0wU8R-1" source="SmW42_UGa75kEuI0wU8R-6" target="SmW42_UGa75kEuI0wU8R-7">
          <mxGeometry relative="1" as="geometry" />
        </mxCell>
        <mxCell id="M7tBpnwQg9bpqLQ-gO83-3" style="edgeStyle=orthogonalEdgeStyle;rounded=0;orthogonalLoop=1;jettySize=auto;html=1;exitX=0.5;exitY=1;exitDx=0;exitDy=0;entryX=0.5;entryY=0;entryDx=0;entryDy=0;" edge="1" parent="SmW42_UGa75kEuI0wU8R-1" source="SmW42_UGa75kEuI0wU8R-6" target="SmW42_UGa75kEuI0wU8R-8">
          <mxGeometry relative="1" as="geometry" />
        </mxCell>
        <mxCell id="SmW42_UGa75kEuI0wU8R-6" value="akarja a listát frissíteni?" style="rhombus;whiteSpace=wrap;html=1;" vertex="1" parent="SmW42_UGa75kEuI0wU8R-1">
          <mxGeometry x="374" y="360" width="80" height="80" as="geometry" />
        </mxCell>
        <mxCell id="M7tBpnwQg9bpqLQ-gO83-9" style="edgeStyle=orthogonalEdgeStyle;rounded=0;orthogonalLoop=1;jettySize=auto;html=1;exitX=1;exitY=0.5;exitDx=0;exitDy=0;entryX=0.5;entryY=1;entryDx=0;entryDy=0;" edge="1" parent="SmW42_UGa75kEuI0wU8R-1" source="SmW42_UGa75kEuI0wU8R-7" target="M7tBpnwQg9bpqLQ-gO83-8">
          <mxGeometry relative="1" as="geometry" />
        </mxCell>
        <mxCell id="SmW42_UGa75kEuI0wU8R-7" value="friss lista letöltése a szerverről" style="rounded=0;whiteSpace=wrap;html=1;" vertex="1" parent="SmW42_UGa75kEuI0wU8R-1">
          <mxGeometry x="560" y="370" width="120" height="60" as="geometry" />
        </mxCell>
        <mxCell id="M7tBpnwQg9bpqLQ-gO83-4" style="edgeStyle=orthogonalEdgeStyle;rounded=0;orthogonalLoop=1;jettySize=auto;html=1;exitX=1;exitY=0.5;exitDx=0;exitDy=0;entryX=0;entryY=0.5;entryDx=0;entryDy=0;" edge="1" parent="SmW42_UGa75kEuI0wU8R-1" source="SmW42_UGa75kEuI0wU8R-8" target="SmW42_UGa75kEuI0wU8R-9">
          <mxGeometry relative="1" as="geometry" />
        </mxCell>
        <mxCell id="M7tBpnwQg9bpqLQ-gO83-5" style="edgeStyle=orthogonalEdgeStyle;rounded=0;orthogonalLoop=1;jettySize=auto;html=1;exitX=0.5;exitY=1;exitDx=0;exitDy=0;entryX=0.5;entryY=0;entryDx=0;entryDy=0;" edge="1" parent="SmW42_UGa75kEuI0wU8R-1" source="SmW42_UGa75kEuI0wU8R-8" target="SmW42_UGa75kEuI0wU8R-12">
          <mxGeometry relative="1" as="geometry" />
        </mxCell>
        <mxCell id="SmW42_UGa75kEuI0wU8R-8" value="akarja szerkeszteni a kiválasztott elemet?" style="rhombus;whiteSpace=wrap;html=1;" vertex="1" parent="SmW42_UGa75kEuI0wU8R-1">
          <mxGeometry x="374" y="530" width="80" height="80" as="geometry" />
        </mxCell>
        <mxCell id="M7tBpnwQg9bpqLQ-gO83-10" style="edgeStyle=orthogonalEdgeStyle;rounded=0;orthogonalLoop=1;jettySize=auto;html=1;exitX=1;exitY=0.5;exitDx=0;exitDy=0;entryX=0.5;entryY=1;entryDx=0;entryDy=0;" edge="1" parent="SmW42_UGa75kEuI0wU8R-1" source="SmW42_UGa75kEuI0wU8R-9" target="M7tBpnwQg9bpqLQ-gO83-8">
          <mxGeometry relative="1" as="geometry" />
        </mxCell>
        <mxCell id="SmW42_UGa75kEuI0wU8R-9" value="foglalás szerkesztés module" style="rounded=0;whiteSpace=wrap;html=1;" vertex="1" parent="SmW42_UGa75kEuI0wU8R-1">
          <mxGeometry x="560" y="540" width="120" height="60" as="geometry" />
        </mxCell>
        <mxCell id="M7tBpnwQg9bpqLQ-gO83-6" style="edgeStyle=orthogonalEdgeStyle;rounded=0;orthogonalLoop=1;jettySize=auto;html=1;exitX=0.5;exitY=1;exitDx=0;exitDy=0;entryX=0.5;entryY=0;entryDx=0;entryDy=0;" edge="1" parent="SmW42_UGa75kEuI0wU8R-1" source="SmW42_UGa75kEuI0wU8R-12" target="SmW42_UGa75kEuI0wU8R-5">
          <mxGeometry relative="1" as="geometry" />
        </mxCell>
        <mxCell id="M7tBpnwQg9bpqLQ-gO83-7" style="edgeStyle=orthogonalEdgeStyle;rounded=0;orthogonalLoop=1;jettySize=auto;html=1;exitX=1;exitY=0.5;exitDx=0;exitDy=0;entryX=0;entryY=0.5;entryDx=0;entryDy=0;" edge="1" parent="SmW42_UGa75kEuI0wU8R-1" source="SmW42_UGa75kEuI0wU8R-12" target="SmW42_UGa75kEuI0wU8R-13">
          <mxGeometry relative="1" as="geometry" />
        </mxCell>
        <mxCell id="SmW42_UGa75kEuI0wU8R-12" value="akarja törölni a kiválasztott elemet?" style="rhombus;whiteSpace=wrap;html=1;" vertex="1" parent="SmW42_UGa75kEuI0wU8R-1">
          <mxGeometry x="374" y="690" width="80" height="80" as="geometry" />
        </mxCell>
        <mxCell id="M7tBpnwQg9bpqLQ-gO83-11" style="edgeStyle=orthogonalEdgeStyle;rounded=0;orthogonalLoop=1;jettySize=auto;html=1;exitX=1;exitY=0.5;exitDx=0;exitDy=0;entryX=0.5;entryY=1;entryDx=0;entryDy=0;" edge="1" parent="SmW42_UGa75kEuI0wU8R-1" source="SmW42_UGa75kEuI0wU8R-13" target="M7tBpnwQg9bpqLQ-gO83-8">
          <mxGeometry relative="1" as="geometry" />
        </mxCell>
        <mxCell id="SmW42_UGa75kEuI0wU8R-13" value="törlés module" style="rounded=0;whiteSpace=wrap;html=1;" vertex="1" parent="SmW42_UGa75kEuI0wU8R-1">
          <mxGeometry x="560" y="700" width="120" height="60" as="geometry" />
        </mxCell>
        <mxCell id="M7tBpnwQg9bpqLQ-gO83-12" style="edgeStyle=orthogonalEdgeStyle;rounded=0;orthogonalLoop=1;jettySize=auto;html=1;exitX=0;exitY=0.5;exitDx=0;exitDy=0;" edge="1" parent="SmW42_UGa75kEuI0wU8R-1" source="M7tBpnwQg9bpqLQ-gO83-8">
          <mxGeometry relative="1" as="geometry">
            <mxPoint x="430" y="190" as="targetPoint" />
          </mxGeometry>
        </mxCell>
        <mxCell id="M7tBpnwQg9bpqLQ-gO83-8" value="" style="ellipse;whiteSpace=wrap;html=1;aspect=fixed;" vertex="1" parent="SmW42_UGa75kEuI0wU8R-1">
          <mxGeometry x="740" y="180" width="20" height="20" as="geometry" />
        </mxCell>
        <mxCell id="M7tBpnwQg9bpqLQ-gO83-13" value="i" style="text;html=1;align=center;verticalAlign=middle;resizable=0;points=[];autosize=1;strokeColor=none;fillColor=none;" vertex="1" parent="SmW42_UGa75kEuI0wU8R-1">
          <mxGeometry x="445" y="368" width="30" height="30" as="geometry" />
        </mxCell>
        <mxCell id="M7tBpnwQg9bpqLQ-gO83-14" value="n" style="text;html=1;align=center;verticalAlign=middle;resizable=0;points=[];autosize=1;strokeColor=none;fillColor=none;" vertex="1" parent="SmW42_UGa75kEuI0wU8R-1">
          <mxGeometry x="424" y="430" width="30" height="30" as="geometry" />
        </mxCell>
        <mxCell id="M7tBpnwQg9bpqLQ-gO83-15" value="i" style="text;html=1;align=center;verticalAlign=middle;resizable=0;points=[];autosize=1;strokeColor=none;fillColor=none;" vertex="1" parent="SmW42_UGa75kEuI0wU8R-1">
          <mxGeometry x="445" y="528" width="30" height="30" as="geometry" />
        </mxCell>
        <mxCell id="M7tBpnwQg9bpqLQ-gO83-16" value="n" style="text;html=1;align=center;verticalAlign=middle;resizable=0;points=[];autosize=1;strokeColor=none;fillColor=none;" vertex="1" parent="SmW42_UGa75kEuI0wU8R-1">
          <mxGeometry x="425" y="588" width="30" height="30" as="geometry" />
        </mxCell>
        <mxCell id="M7tBpnwQg9bpqLQ-gO83-17" value="i" style="text;html=1;align=center;verticalAlign=middle;resizable=0;points=[];autosize=1;strokeColor=none;fillColor=none;" vertex="1" parent="SmW42_UGa75kEuI0wU8R-1">
          <mxGeometry x="445" y="688" width="30" height="30" as="geometry" />
        </mxCell>
        <mxCell id="M7tBpnwQg9bpqLQ-gO83-18" value="n" style="text;html=1;align=center;verticalAlign=middle;resizable=0;points=[];autosize=1;strokeColor=none;fillColor=none;" vertex="1" parent="SmW42_UGa75kEuI0wU8R-1">
          <mxGeometry x="425" y="748" width="30" height="30" as="geometry" />
        </mxCell>
      </root>
    </mxGraphModel>
  </diagram>
  <diagram name="számlák module" id="nxMgOAvtf5cHxWpgUuZx">
    <mxGraphModel dx="1434" dy="694" grid="1" gridSize="10" guides="1" tooltips="1" connect="1" arrows="1" fold="1" page="1" pageScale="1" pageWidth="827" pageHeight="1169" math="0" shadow="0">
      <root>
        <mxCell id="TgPoLZ7xem1ujAMWC93s-0" />
        <mxCell id="TgPoLZ7xem1ujAMWC93s-1" parent="TgPoLZ7xem1ujAMWC93s-0" />
        <mxCell id="TgPoLZ7xem1ujAMWC93s-2" value="Számlák module" style="text;html=1;align=center;verticalAlign=middle;whiteSpace=wrap;rounded=0;fontSize=24;" vertex="1" parent="TgPoLZ7xem1ujAMWC93s-1">
          <mxGeometry x="540" y="20" width="270" height="30" as="geometry" />
        </mxCell>
        <mxCell id="9E8LOjc7QdFOkmXNU_-c-1" style="edgeStyle=orthogonalEdgeStyle;rounded=0;orthogonalLoop=1;jettySize=auto;html=1;exitX=0.5;exitY=1;exitDx=0;exitDy=0;entryX=0.5;entryY=0;entryDx=0;entryDy=0;" edge="1" parent="TgPoLZ7xem1ujAMWC93s-1" source="TgPoLZ7xem1ujAMWC93s-3" target="TgPoLZ7xem1ujAMWC93s-6">
          <mxGeometry relative="1" as="geometry" />
        </mxCell>
        <mxCell id="TgPoLZ7xem1ujAMWC93s-3" value="ki: számla lista" style="shape=parallelogram;perimeter=parallelogramPerimeter;whiteSpace=wrap;html=1;fixedSize=1;" vertex="1" parent="TgPoLZ7xem1ujAMWC93s-1">
          <mxGeometry x="354" y="230" width="120" height="60" as="geometry" />
        </mxCell>
        <mxCell id="9E8LOjc7QdFOkmXNU_-c-0" style="edgeStyle=orthogonalEdgeStyle;rounded=0;orthogonalLoop=1;jettySize=auto;html=1;exitX=0.5;exitY=1;exitDx=0;exitDy=0;entryX=0.5;entryY=0;entryDx=0;entryDy=0;" edge="1" parent="TgPoLZ7xem1ujAMWC93s-1" source="TgPoLZ7xem1ujAMWC93s-4" target="TgPoLZ7xem1ujAMWC93s-3">
          <mxGeometry relative="1" as="geometry" />
        </mxCell>
        <mxCell id="TgPoLZ7xem1ujAMWC93s-4" value="start" style="ellipse;whiteSpace=wrap;html=1;" vertex="1" parent="TgPoLZ7xem1ujAMWC93s-1">
          <mxGeometry x="354" y="80" width="120" height="80" as="geometry" />
        </mxCell>
        <mxCell id="TgPoLZ7xem1ujAMWC93s-5" value="stop" style="ellipse;whiteSpace=wrap;html=1;" vertex="1" parent="TgPoLZ7xem1ujAMWC93s-1">
          <mxGeometry x="354" y="690" width="120" height="80" as="geometry" />
        </mxCell>
        <mxCell id="9E8LOjc7QdFOkmXNU_-c-2" style="edgeStyle=orthogonalEdgeStyle;rounded=0;orthogonalLoop=1;jettySize=auto;html=1;exitX=1;exitY=0.5;exitDx=0;exitDy=0;entryX=0;entryY=0.5;entryDx=0;entryDy=0;" edge="1" parent="TgPoLZ7xem1ujAMWC93s-1" source="TgPoLZ7xem1ujAMWC93s-6" target="TgPoLZ7xem1ujAMWC93s-7">
          <mxGeometry relative="1" as="geometry" />
        </mxCell>
        <mxCell id="9E8LOjc7QdFOkmXNU_-c-3" style="edgeStyle=orthogonalEdgeStyle;rounded=0;orthogonalLoop=1;jettySize=auto;html=1;exitX=0.5;exitY=1;exitDx=0;exitDy=0;entryX=0.5;entryY=0;entryDx=0;entryDy=0;" edge="1" parent="TgPoLZ7xem1ujAMWC93s-1" source="TgPoLZ7xem1ujAMWC93s-6" target="TgPoLZ7xem1ujAMWC93s-8">
          <mxGeometry relative="1" as="geometry" />
        </mxCell>
        <mxCell id="TgPoLZ7xem1ujAMWC93s-6" value="akarja a listát frissíteni?" style="rhombus;whiteSpace=wrap;html=1;" vertex="1" parent="TgPoLZ7xem1ujAMWC93s-1">
          <mxGeometry x="374" y="360" width="80" height="80" as="geometry" />
        </mxCell>
        <mxCell id="9E8LOjc7QdFOkmXNU_-c-11" style="edgeStyle=orthogonalEdgeStyle;rounded=0;orthogonalLoop=1;jettySize=auto;html=1;exitX=1;exitY=0.5;exitDx=0;exitDy=0;entryX=0.5;entryY=1;entryDx=0;entryDy=0;" edge="1" parent="TgPoLZ7xem1ujAMWC93s-1" source="TgPoLZ7xem1ujAMWC93s-7" target="9E8LOjc7QdFOkmXNU_-c-10">
          <mxGeometry relative="1" as="geometry" />
        </mxCell>
        <mxCell id="TgPoLZ7xem1ujAMWC93s-7" value="friss lista letöltése a szerverről" style="rounded=0;whiteSpace=wrap;html=1;" vertex="1" parent="TgPoLZ7xem1ujAMWC93s-1">
          <mxGeometry x="560" y="370" width="120" height="60" as="geometry" />
        </mxCell>
        <mxCell id="9E8LOjc7QdFOkmXNU_-c-4" style="edgeStyle=orthogonalEdgeStyle;rounded=0;orthogonalLoop=1;jettySize=auto;html=1;exitX=1;exitY=0.5;exitDx=0;exitDy=0;entryX=0;entryY=0.5;entryDx=0;entryDy=0;" edge="1" parent="TgPoLZ7xem1ujAMWC93s-1" source="TgPoLZ7xem1ujAMWC93s-8" target="TgPoLZ7xem1ujAMWC93s-9">
          <mxGeometry relative="1" as="geometry" />
        </mxCell>
        <mxCell id="9E8LOjc7QdFOkmXNU_-c-5" style="edgeStyle=orthogonalEdgeStyle;rounded=0;orthogonalLoop=1;jettySize=auto;html=1;exitX=0.5;exitY=1;exitDx=0;exitDy=0;entryX=0.5;entryY=0;entryDx=0;entryDy=0;" edge="1" parent="TgPoLZ7xem1ujAMWC93s-1" source="TgPoLZ7xem1ujAMWC93s-8" target="TgPoLZ7xem1ujAMWC93s-5">
          <mxGeometry relative="1" as="geometry" />
        </mxCell>
        <mxCell id="TgPoLZ7xem1ujAMWC93s-8" value="akarja megtekinteni a számlát?" style="rhombus;whiteSpace=wrap;html=1;" vertex="1" parent="TgPoLZ7xem1ujAMWC93s-1">
          <mxGeometry x="374" y="530" width="80" height="80" as="geometry" />
        </mxCell>
        <mxCell id="9E8LOjc7QdFOkmXNU_-c-12" style="edgeStyle=orthogonalEdgeStyle;rounded=0;orthogonalLoop=1;jettySize=auto;html=1;exitX=1;exitY=0.5;exitDx=0;exitDy=0;entryX=0.5;entryY=1;entryDx=0;entryDy=0;" edge="1" parent="TgPoLZ7xem1ujAMWC93s-1" source="TgPoLZ7xem1ujAMWC93s-9" target="9E8LOjc7QdFOkmXNU_-c-10">
          <mxGeometry relative="1" as="geometry" />
        </mxCell>
        <mxCell id="TgPoLZ7xem1ujAMWC93s-9" value="számla letöltése és megnyitása" style="rounded=0;whiteSpace=wrap;html=1;" vertex="1" parent="TgPoLZ7xem1ujAMWC93s-1">
          <mxGeometry x="560" y="540" width="120" height="60" as="geometry" />
        </mxCell>
        <mxCell id="9E8LOjc7QdFOkmXNU_-c-6" value="i" style="text;html=1;align=center;verticalAlign=middle;resizable=0;points=[];autosize=1;strokeColor=none;fillColor=none;" vertex="1" parent="TgPoLZ7xem1ujAMWC93s-1">
          <mxGeometry x="445" y="368" width="30" height="30" as="geometry" />
        </mxCell>
        <mxCell id="9E8LOjc7QdFOkmXNU_-c-7" value="n" style="text;html=1;align=center;verticalAlign=middle;resizable=0;points=[];autosize=1;strokeColor=none;fillColor=none;" vertex="1" parent="TgPoLZ7xem1ujAMWC93s-1">
          <mxGeometry x="425" y="418" width="30" height="30" as="geometry" />
        </mxCell>
        <mxCell id="9E8LOjc7QdFOkmXNU_-c-8" value="i" style="text;html=1;align=center;verticalAlign=middle;resizable=0;points=[];autosize=1;strokeColor=none;fillColor=none;" vertex="1" parent="TgPoLZ7xem1ujAMWC93s-1">
          <mxGeometry x="445" y="538" width="30" height="30" as="geometry" />
        </mxCell>
        <mxCell id="9E8LOjc7QdFOkmXNU_-c-9" value="n" style="text;html=1;align=center;verticalAlign=middle;resizable=0;points=[];autosize=1;strokeColor=none;fillColor=none;" vertex="1" parent="TgPoLZ7xem1ujAMWC93s-1">
          <mxGeometry x="440" y="585" width="30" height="30" as="geometry" />
        </mxCell>
        <mxCell id="9E8LOjc7QdFOkmXNU_-c-13" style="edgeStyle=orthogonalEdgeStyle;rounded=0;orthogonalLoop=1;jettySize=auto;html=1;exitX=0;exitY=0.5;exitDx=0;exitDy=0;" edge="1" parent="TgPoLZ7xem1ujAMWC93s-1" source="9E8LOjc7QdFOkmXNU_-c-10">
          <mxGeometry relative="1" as="geometry">
            <mxPoint x="430" y="200" as="targetPoint" />
          </mxGeometry>
        </mxCell>
        <mxCell id="9E8LOjc7QdFOkmXNU_-c-10" value="" style="ellipse;whiteSpace=wrap;html=1;aspect=fixed;" vertex="1" parent="TgPoLZ7xem1ujAMWC93s-1">
          <mxGeometry x="750" y="190" width="20" height="20" as="geometry" />
        </mxCell>
      </root>
    </mxGraphModel>
  </diagram>
  <diagram name="felszerelések kategóriák module" id="UbQa1NLjyM7qi2mRPINg">
    <mxGraphModel dx="1434" dy="694" grid="1" gridSize="10" guides="1" tooltips="1" connect="1" arrows="1" fold="1" page="1" pageScale="1" pageWidth="827" pageHeight="1169" math="0" shadow="0">
      <root>
        <mxCell id="m6xgblr7kocWXK0XmYH7-0" />
        <mxCell id="m6xgblr7kocWXK0XmYH7-1" parent="m6xgblr7kocWXK0XmYH7-0" />
        <mxCell id="m6xgblr7kocWXK0XmYH7-2" value="Felszerelés kategóriák module" style="text;html=1;align=center;verticalAlign=middle;whiteSpace=wrap;rounded=0;fontSize=24;" vertex="1" parent="m6xgblr7kocWXK0XmYH7-1">
          <mxGeometry x="540" y="20" width="270" height="30" as="geometry" />
        </mxCell>
        <mxCell id="-I0lA4iA9rwth0MiKle--1" style="edgeStyle=orthogonalEdgeStyle;rounded=0;orthogonalLoop=1;jettySize=auto;html=1;exitX=0.5;exitY=1;exitDx=0;exitDy=0;entryX=0.5;entryY=0;entryDx=0;entryDy=0;" edge="1" parent="m6xgblr7kocWXK0XmYH7-1" source="m6xgblr7kocWXK0XmYH7-3" target="m6xgblr7kocWXK0XmYH7-6">
          <mxGeometry relative="1" as="geometry" />
        </mxCell>
        <mxCell id="m6xgblr7kocWXK0XmYH7-3" value="ki: felszerelés kategóriák lista" style="shape=parallelogram;perimeter=parallelogramPerimeter;whiteSpace=wrap;html=1;fixedSize=1;" vertex="1" parent="m6xgblr7kocWXK0XmYH7-1">
          <mxGeometry x="354" y="230" width="120" height="60" as="geometry" />
        </mxCell>
        <mxCell id="-I0lA4iA9rwth0MiKle--0" style="edgeStyle=orthogonalEdgeStyle;rounded=0;orthogonalLoop=1;jettySize=auto;html=1;exitX=0.5;exitY=1;exitDx=0;exitDy=0;entryX=0.5;entryY=0;entryDx=0;entryDy=0;" edge="1" parent="m6xgblr7kocWXK0XmYH7-1" source="m6xgblr7kocWXK0XmYH7-4" target="m6xgblr7kocWXK0XmYH7-3">
          <mxGeometry relative="1" as="geometry" />
        </mxCell>
        <mxCell id="m6xgblr7kocWXK0XmYH7-4" value="start" style="ellipse;whiteSpace=wrap;html=1;" vertex="1" parent="m6xgblr7kocWXK0XmYH7-1">
          <mxGeometry x="354" y="80" width="120" height="80" as="geometry" />
        </mxCell>
        <mxCell id="m6xgblr7kocWXK0XmYH7-5" value="stop" style="ellipse;whiteSpace=wrap;html=1;" vertex="1" parent="m6xgblr7kocWXK0XmYH7-1">
          <mxGeometry x="354" y="950" width="120" height="80" as="geometry" />
        </mxCell>
        <mxCell id="-I0lA4iA9rwth0MiKle--2" style="edgeStyle=orthogonalEdgeStyle;rounded=0;orthogonalLoop=1;jettySize=auto;html=1;exitX=0.5;exitY=1;exitDx=0;exitDy=0;entryX=0.5;entryY=0;entryDx=0;entryDy=0;" edge="1" parent="m6xgblr7kocWXK0XmYH7-1" source="m6xgblr7kocWXK0XmYH7-6" target="m6xgblr7kocWXK0XmYH7-8">
          <mxGeometry relative="1" as="geometry" />
        </mxCell>
        <mxCell id="-I0lA4iA9rwth0MiKle--5" style="edgeStyle=orthogonalEdgeStyle;rounded=0;orthogonalLoop=1;jettySize=auto;html=1;exitX=1;exitY=0.5;exitDx=0;exitDy=0;entryX=0;entryY=0.5;entryDx=0;entryDy=0;" edge="1" parent="m6xgblr7kocWXK0XmYH7-1" source="m6xgblr7kocWXK0XmYH7-6" target="m6xgblr7kocWXK0XmYH7-7">
          <mxGeometry relative="1" as="geometry" />
        </mxCell>
        <mxCell id="m6xgblr7kocWXK0XmYH7-6" value="akarja a listát frissíteni?" style="rhombus;whiteSpace=wrap;html=1;" vertex="1" parent="m6xgblr7kocWXK0XmYH7-1">
          <mxGeometry x="374" y="350" width="80" height="80" as="geometry" />
        </mxCell>
        <mxCell id="-I0lA4iA9rwth0MiKle--10" style="edgeStyle=orthogonalEdgeStyle;rounded=0;orthogonalLoop=1;jettySize=auto;html=1;exitX=1;exitY=0.5;exitDx=0;exitDy=0;entryX=0.5;entryY=1;entryDx=0;entryDy=0;" edge="1" parent="m6xgblr7kocWXK0XmYH7-1" source="m6xgblr7kocWXK0XmYH7-7" target="-I0lA4iA9rwth0MiKle--9">
          <mxGeometry relative="1" as="geometry" />
        </mxCell>
        <mxCell id="m6xgblr7kocWXK0XmYH7-7" value="friss lista letöltése a szerverről" style="rounded=0;whiteSpace=wrap;html=1;" vertex="1" parent="m6xgblr7kocWXK0XmYH7-1">
          <mxGeometry x="560" y="360" width="120" height="60" as="geometry" />
        </mxCell>
        <mxCell id="-I0lA4iA9rwth0MiKle--3" style="edgeStyle=orthogonalEdgeStyle;rounded=0;orthogonalLoop=1;jettySize=auto;html=1;exitX=0.5;exitY=1;exitDx=0;exitDy=0;entryX=0.5;entryY=0;entryDx=0;entryDy=0;" edge="1" parent="m6xgblr7kocWXK0XmYH7-1" source="m6xgblr7kocWXK0XmYH7-8" target="m6xgblr7kocWXK0XmYH7-10">
          <mxGeometry relative="1" as="geometry" />
        </mxCell>
        <mxCell id="-I0lA4iA9rwth0MiKle--6" style="edgeStyle=orthogonalEdgeStyle;rounded=0;orthogonalLoop=1;jettySize=auto;html=1;exitX=1;exitY=0.5;exitDx=0;exitDy=0;entryX=0;entryY=0.5;entryDx=0;entryDy=0;" edge="1" parent="m6xgblr7kocWXK0XmYH7-1" source="m6xgblr7kocWXK0XmYH7-8" target="m6xgblr7kocWXK0XmYH7-9">
          <mxGeometry relative="1" as="geometry" />
        </mxCell>
        <mxCell id="m6xgblr7kocWXK0XmYH7-8" value="akarja szerkeszteni a kiválasztott elemet?" style="rhombus;whiteSpace=wrap;html=1;" vertex="1" parent="m6xgblr7kocWXK0XmYH7-1">
          <mxGeometry x="374" y="530" width="80" height="80" as="geometry" />
        </mxCell>
        <mxCell id="-I0lA4iA9rwth0MiKle--11" style="edgeStyle=orthogonalEdgeStyle;rounded=0;orthogonalLoop=1;jettySize=auto;html=1;exitX=1;exitY=0.5;exitDx=0;exitDy=0;entryX=0.5;entryY=1;entryDx=0;entryDy=0;" edge="1" parent="m6xgblr7kocWXK0XmYH7-1" source="m6xgblr7kocWXK0XmYH7-9" target="-I0lA4iA9rwth0MiKle--9">
          <mxGeometry relative="1" as="geometry" />
        </mxCell>
        <mxCell id="m6xgblr7kocWXK0XmYH7-9" value="felszerelés kategória szerkesztés module" style="rounded=0;whiteSpace=wrap;html=1;" vertex="1" parent="m6xgblr7kocWXK0XmYH7-1">
          <mxGeometry x="560" y="540" width="120" height="60" as="geometry" />
        </mxCell>
        <mxCell id="-I0lA4iA9rwth0MiKle--4" style="edgeStyle=orthogonalEdgeStyle;rounded=0;orthogonalLoop=1;jettySize=auto;html=1;exitX=0.5;exitY=1;exitDx=0;exitDy=0;entryX=0.5;entryY=0;entryDx=0;entryDy=0;" edge="1" parent="m6xgblr7kocWXK0XmYH7-1" source="m6xgblr7kocWXK0XmYH7-10" target="m6xgblr7kocWXK0XmYH7-12">
          <mxGeometry relative="1" as="geometry" />
        </mxCell>
        <mxCell id="-I0lA4iA9rwth0MiKle--7" style="edgeStyle=orthogonalEdgeStyle;rounded=0;orthogonalLoop=1;jettySize=auto;html=1;exitX=1;exitY=0.5;exitDx=0;exitDy=0;entryX=0;entryY=0.5;entryDx=0;entryDy=0;" edge="1" parent="m6xgblr7kocWXK0XmYH7-1" source="m6xgblr7kocWXK0XmYH7-10" target="m6xgblr7kocWXK0XmYH7-11">
          <mxGeometry relative="1" as="geometry" />
        </mxCell>
        <mxCell id="m6xgblr7kocWXK0XmYH7-10" value="akar új kategóriát létrehozni?" style="rhombus;whiteSpace=wrap;html=1;" vertex="1" parent="m6xgblr7kocWXK0XmYH7-1">
          <mxGeometry x="374" y="680" width="80" height="80" as="geometry" />
        </mxCell>
        <mxCell id="-I0lA4iA9rwth0MiKle--12" style="edgeStyle=orthogonalEdgeStyle;rounded=0;orthogonalLoop=1;jettySize=auto;html=1;exitX=1;exitY=0.5;exitDx=0;exitDy=0;entryX=0.5;entryY=1;entryDx=0;entryDy=0;" edge="1" parent="m6xgblr7kocWXK0XmYH7-1" source="m6xgblr7kocWXK0XmYH7-11" target="-I0lA4iA9rwth0MiKle--9">
          <mxGeometry relative="1" as="geometry" />
        </mxCell>
        <mxCell id="m6xgblr7kocWXK0XmYH7-11" value="felszerelés kategória létrehozás module" style="rounded=0;whiteSpace=wrap;html=1;" vertex="1" parent="m6xgblr7kocWXK0XmYH7-1">
          <mxGeometry x="560" y="690" width="120" height="60" as="geometry" />
        </mxCell>
        <mxCell id="-I0lA4iA9rwth0MiKle--8" style="edgeStyle=orthogonalEdgeStyle;rounded=0;orthogonalLoop=1;jettySize=auto;html=1;exitX=1;exitY=0.5;exitDx=0;exitDy=0;entryX=0;entryY=0.5;entryDx=0;entryDy=0;" edge="1" parent="m6xgblr7kocWXK0XmYH7-1" source="m6xgblr7kocWXK0XmYH7-12" target="m6xgblr7kocWXK0XmYH7-13">
          <mxGeometry relative="1" as="geometry" />
        </mxCell>
        <mxCell id="-I0lA4iA9rwth0MiKle--15" style="edgeStyle=orthogonalEdgeStyle;rounded=0;orthogonalLoop=1;jettySize=auto;html=1;exitX=0.5;exitY=1;exitDx=0;exitDy=0;entryX=0.5;entryY=0;entryDx=0;entryDy=0;" edge="1" parent="m6xgblr7kocWXK0XmYH7-1" source="m6xgblr7kocWXK0XmYH7-12" target="m6xgblr7kocWXK0XmYH7-5">
          <mxGeometry relative="1" as="geometry" />
        </mxCell>
        <mxCell id="m6xgblr7kocWXK0XmYH7-12" value="akarja törölni a kiválasztott elemet?" style="rhombus;whiteSpace=wrap;html=1;" vertex="1" parent="m6xgblr7kocWXK0XmYH7-1">
          <mxGeometry x="374" y="810" width="80" height="80" as="geometry" />
        </mxCell>
        <mxCell id="-I0lA4iA9rwth0MiKle--13" style="edgeStyle=orthogonalEdgeStyle;rounded=0;orthogonalLoop=1;jettySize=auto;html=1;exitX=1;exitY=0.5;exitDx=0;exitDy=0;entryX=0.5;entryY=1;entryDx=0;entryDy=0;" edge="1" parent="m6xgblr7kocWXK0XmYH7-1" source="m6xgblr7kocWXK0XmYH7-13" target="-I0lA4iA9rwth0MiKle--9">
          <mxGeometry relative="1" as="geometry" />
        </mxCell>
        <mxCell id="m6xgblr7kocWXK0XmYH7-13" value="törlés module" style="rounded=0;whiteSpace=wrap;html=1;" vertex="1" parent="m6xgblr7kocWXK0XmYH7-1">
          <mxGeometry x="560" y="820" width="120" height="60" as="geometry" />
        </mxCell>
        <mxCell id="-I0lA4iA9rwth0MiKle--14" style="edgeStyle=orthogonalEdgeStyle;rounded=0;orthogonalLoop=1;jettySize=auto;html=1;exitX=0;exitY=0.5;exitDx=0;exitDy=0;" edge="1" parent="m6xgblr7kocWXK0XmYH7-1" source="-I0lA4iA9rwth0MiKle--9">
          <mxGeometry relative="1" as="geometry">
            <mxPoint x="430" y="200" as="targetPoint" />
          </mxGeometry>
        </mxCell>
        <mxCell id="-I0lA4iA9rwth0MiKle--9" value="" style="ellipse;whiteSpace=wrap;html=1;aspect=fixed;" vertex="1" parent="m6xgblr7kocWXK0XmYH7-1">
          <mxGeometry x="720" y="190" width="20" height="20" as="geometry" />
        </mxCell>
        <mxCell id="-I0lA4iA9rwth0MiKle--16" value="i" style="text;html=1;align=center;verticalAlign=middle;resizable=0;points=[];autosize=1;strokeColor=none;fillColor=none;" vertex="1" parent="m6xgblr7kocWXK0XmYH7-1">
          <mxGeometry x="444" y="360" width="30" height="30" as="geometry" />
        </mxCell>
        <mxCell id="-I0lA4iA9rwth0MiKle--17" value="n" style="text;html=1;align=center;verticalAlign=middle;resizable=0;points=[];autosize=1;strokeColor=none;fillColor=none;" vertex="1" parent="m6xgblr7kocWXK0XmYH7-1">
          <mxGeometry x="425" y="418" width="30" height="30" as="geometry" />
        </mxCell>
        <mxCell id="-I0lA4iA9rwth0MiKle--18" value="i" style="text;html=1;align=center;verticalAlign=middle;resizable=0;points=[];autosize=1;strokeColor=none;fillColor=none;" vertex="1" parent="m6xgblr7kocWXK0XmYH7-1">
          <mxGeometry x="445" y="540" width="30" height="30" as="geometry" />
        </mxCell>
        <mxCell id="-I0lA4iA9rwth0MiKle--19" value="n" style="text;html=1;align=center;verticalAlign=middle;resizable=0;points=[];autosize=1;strokeColor=none;fillColor=none;" vertex="1" parent="m6xgblr7kocWXK0XmYH7-1">
          <mxGeometry x="415" y="600" width="30" height="30" as="geometry" />
        </mxCell>
        <mxCell id="-I0lA4iA9rwth0MiKle--20" value="i" style="text;html=1;align=center;verticalAlign=middle;resizable=0;points=[];autosize=1;strokeColor=none;fillColor=none;" vertex="1" parent="m6xgblr7kocWXK0XmYH7-1">
          <mxGeometry x="445" y="688" width="30" height="30" as="geometry" />
        </mxCell>
        <mxCell id="-I0lA4iA9rwth0MiKle--21" value="n" style="text;html=1;align=center;verticalAlign=middle;resizable=0;points=[];autosize=1;strokeColor=none;fillColor=none;" vertex="1" parent="m6xgblr7kocWXK0XmYH7-1">
          <mxGeometry x="425" y="738" width="30" height="30" as="geometry" />
        </mxCell>
        <mxCell id="-I0lA4iA9rwth0MiKle--22" value="i" style="text;html=1;align=center;verticalAlign=middle;resizable=0;points=[];autosize=1;strokeColor=none;fillColor=none;" vertex="1" parent="m6xgblr7kocWXK0XmYH7-1">
          <mxGeometry x="445" y="808" width="30" height="30" as="geometry" />
        </mxCell>
        <mxCell id="-I0lA4iA9rwth0MiKle--23" value="n" style="text;html=1;align=center;verticalAlign=middle;resizable=0;points=[];autosize=1;strokeColor=none;fillColor=none;" vertex="1" parent="m6xgblr7kocWXK0XmYH7-1">
          <mxGeometry x="425" y="868" width="30" height="30" as="geometry" />
        </mxCell>
      </root>
    </mxGraphModel>
  </diagram>
  <diagram name="felszerelésképek module" id="SNuTPrn5W6XA-HFwEUJL">
    <mxGraphModel dx="1434" dy="694" grid="1" gridSize="10" guides="1" tooltips="1" connect="1" arrows="1" fold="1" page="1" pageScale="1" pageWidth="827" pageHeight="1169" math="0" shadow="0">
      <root>
        <mxCell id="VOCm2ymEHID-f03OhVJj-0" />
        <mxCell id="VOCm2ymEHID-f03OhVJj-1" parent="VOCm2ymEHID-f03OhVJj-0" />
        <mxCell id="VOCm2ymEHID-f03OhVJj-2" value="Felszerelésképek module" style="text;html=1;align=center;verticalAlign=middle;whiteSpace=wrap;rounded=0;fontSize=24;" vertex="1" parent="VOCm2ymEHID-f03OhVJj-1">
          <mxGeometry x="540" y="20" width="270" height="30" as="geometry" />
        </mxCell>
        <mxCell id="b-DLqOWruej7zH0G7Wje-1" style="edgeStyle=orthogonalEdgeStyle;rounded=0;orthogonalLoop=1;jettySize=auto;html=1;exitX=0.5;exitY=1;exitDx=0;exitDy=0;entryX=0.5;entryY=0;entryDx=0;entryDy=0;" edge="1" parent="VOCm2ymEHID-f03OhVJj-1" source="VOCm2ymEHID-f03OhVJj-3" target="VOCm2ymEHID-f03OhVJj-6">
          <mxGeometry relative="1" as="geometry" />
        </mxCell>
        <mxCell id="VOCm2ymEHID-f03OhVJj-3" value="ki: felszerelésképek lista" style="shape=parallelogram;perimeter=parallelogramPerimeter;whiteSpace=wrap;html=1;fixedSize=1;" vertex="1" parent="VOCm2ymEHID-f03OhVJj-1">
          <mxGeometry x="354" y="230" width="120" height="60" as="geometry" />
        </mxCell>
        <mxCell id="b-DLqOWruej7zH0G7Wje-0" style="edgeStyle=orthogonalEdgeStyle;rounded=0;orthogonalLoop=1;jettySize=auto;html=1;exitX=0.5;exitY=1;exitDx=0;exitDy=0;entryX=0.5;entryY=0;entryDx=0;entryDy=0;" edge="1" parent="VOCm2ymEHID-f03OhVJj-1" source="VOCm2ymEHID-f03OhVJj-4" target="VOCm2ymEHID-f03OhVJj-3">
          <mxGeometry relative="1" as="geometry" />
        </mxCell>
        <mxCell id="VOCm2ymEHID-f03OhVJj-4" value="start" style="ellipse;whiteSpace=wrap;html=1;" vertex="1" parent="VOCm2ymEHID-f03OhVJj-1">
          <mxGeometry x="354" y="80" width="120" height="80" as="geometry" />
        </mxCell>
        <mxCell id="VOCm2ymEHID-f03OhVJj-5" value="stop" style="ellipse;whiteSpace=wrap;html=1;" vertex="1" parent="VOCm2ymEHID-f03OhVJj-1">
          <mxGeometry x="354" y="950" width="120" height="80" as="geometry" />
        </mxCell>
        <mxCell id="b-DLqOWruej7zH0G7Wje-2" style="edgeStyle=orthogonalEdgeStyle;rounded=0;orthogonalLoop=1;jettySize=auto;html=1;exitX=0.5;exitY=1;exitDx=0;exitDy=0;entryX=0.5;entryY=0;entryDx=0;entryDy=0;" edge="1" parent="VOCm2ymEHID-f03OhVJj-1" source="VOCm2ymEHID-f03OhVJj-6" target="VOCm2ymEHID-f03OhVJj-8">
          <mxGeometry relative="1" as="geometry" />
        </mxCell>
        <mxCell id="b-DLqOWruej7zH0G7Wje-4" style="edgeStyle=orthogonalEdgeStyle;rounded=0;orthogonalLoop=1;jettySize=auto;html=1;exitX=1;exitY=0.5;exitDx=0;exitDy=0;entryX=0;entryY=0.5;entryDx=0;entryDy=0;" edge="1" parent="VOCm2ymEHID-f03OhVJj-1" source="VOCm2ymEHID-f03OhVJj-6" target="VOCm2ymEHID-f03OhVJj-7">
          <mxGeometry relative="1" as="geometry" />
        </mxCell>
        <mxCell id="VOCm2ymEHID-f03OhVJj-6" value="akarja a listát frissíteni?" style="rhombus;whiteSpace=wrap;html=1;" vertex="1" parent="VOCm2ymEHID-f03OhVJj-1">
          <mxGeometry x="374" y="350" width="80" height="80" as="geometry" />
        </mxCell>
        <mxCell id="b-DLqOWruej7zH0G7Wje-11" style="edgeStyle=orthogonalEdgeStyle;rounded=0;orthogonalLoop=1;jettySize=auto;html=1;exitX=1;exitY=0.5;exitDx=0;exitDy=0;entryX=0.5;entryY=1;entryDx=0;entryDy=0;" edge="1" parent="VOCm2ymEHID-f03OhVJj-1" source="VOCm2ymEHID-f03OhVJj-7" target="b-DLqOWruej7zH0G7Wje-10">
          <mxGeometry relative="1" as="geometry" />
        </mxCell>
        <mxCell id="VOCm2ymEHID-f03OhVJj-7" value="friss lista letöltése a szerverről" style="rounded=0;whiteSpace=wrap;html=1;" vertex="1" parent="VOCm2ymEHID-f03OhVJj-1">
          <mxGeometry x="560" y="360" width="120" height="60" as="geometry" />
        </mxCell>
        <mxCell id="b-DLqOWruej7zH0G7Wje-3" style="edgeStyle=orthogonalEdgeStyle;rounded=0;orthogonalLoop=1;jettySize=auto;html=1;exitX=0.5;exitY=1;exitDx=0;exitDy=0;entryX=0.5;entryY=0;entryDx=0;entryDy=0;" edge="1" parent="VOCm2ymEHID-f03OhVJj-1" source="VOCm2ymEHID-f03OhVJj-8" target="VOCm2ymEHID-f03OhVJj-10">
          <mxGeometry relative="1" as="geometry" />
        </mxCell>
        <mxCell id="b-DLqOWruej7zH0G7Wje-5" style="edgeStyle=orthogonalEdgeStyle;rounded=0;orthogonalLoop=1;jettySize=auto;html=1;exitX=1;exitY=0.5;exitDx=0;exitDy=0;entryX=0;entryY=0.5;entryDx=0;entryDy=0;" edge="1" parent="VOCm2ymEHID-f03OhVJj-1" source="VOCm2ymEHID-f03OhVJj-8" target="VOCm2ymEHID-f03OhVJj-9">
          <mxGeometry relative="1" as="geometry" />
        </mxCell>
        <mxCell id="VOCm2ymEHID-f03OhVJj-8" value="akarja szerkeszteni a kiválasztott elemet?" style="rhombus;whiteSpace=wrap;html=1;" vertex="1" parent="VOCm2ymEHID-f03OhVJj-1">
          <mxGeometry x="374" y="530" width="80" height="80" as="geometry" />
        </mxCell>
        <mxCell id="b-DLqOWruej7zH0G7Wje-12" style="edgeStyle=orthogonalEdgeStyle;rounded=0;orthogonalLoop=1;jettySize=auto;html=1;exitX=1;exitY=0.5;exitDx=0;exitDy=0;entryX=0.5;entryY=1;entryDx=0;entryDy=0;" edge="1" parent="VOCm2ymEHID-f03OhVJj-1" source="VOCm2ymEHID-f03OhVJj-9" target="b-DLqOWruej7zH0G7Wje-10">
          <mxGeometry relative="1" as="geometry" />
        </mxCell>
        <mxCell id="VOCm2ymEHID-f03OhVJj-9" value="felszereléskép szerkesztés module" style="rounded=0;whiteSpace=wrap;html=1;" vertex="1" parent="VOCm2ymEHID-f03OhVJj-1">
          <mxGeometry x="560" y="540" width="120" height="60" as="geometry" />
        </mxCell>
        <mxCell id="b-DLqOWruej7zH0G7Wje-6" style="edgeStyle=orthogonalEdgeStyle;rounded=0;orthogonalLoop=1;jettySize=auto;html=1;exitX=1;exitY=0.5;exitDx=0;exitDy=0;entryX=0;entryY=0.5;entryDx=0;entryDy=0;" edge="1" parent="VOCm2ymEHID-f03OhVJj-1" source="VOCm2ymEHID-f03OhVJj-10" target="VOCm2ymEHID-f03OhVJj-11">
          <mxGeometry relative="1" as="geometry" />
        </mxCell>
        <mxCell id="b-DLqOWruej7zH0G7Wje-7" style="edgeStyle=orthogonalEdgeStyle;rounded=0;orthogonalLoop=1;jettySize=auto;html=1;exitX=0.5;exitY=1;exitDx=0;exitDy=0;entryX=0.5;entryY=0;entryDx=0;entryDy=0;" edge="1" parent="VOCm2ymEHID-f03OhVJj-1" source="VOCm2ymEHID-f03OhVJj-10" target="VOCm2ymEHID-f03OhVJj-12">
          <mxGeometry relative="1" as="geometry" />
        </mxCell>
        <mxCell id="VOCm2ymEHID-f03OhVJj-10" value="akar új képet feltölteni?" style="rhombus;whiteSpace=wrap;html=1;" vertex="1" parent="VOCm2ymEHID-f03OhVJj-1">
          <mxGeometry x="374" y="680" width="80" height="80" as="geometry" />
        </mxCell>
        <mxCell id="b-DLqOWruej7zH0G7Wje-13" style="edgeStyle=orthogonalEdgeStyle;rounded=0;orthogonalLoop=1;jettySize=auto;html=1;exitX=1;exitY=0.5;exitDx=0;exitDy=0;entryX=0.5;entryY=1;entryDx=0;entryDy=0;" edge="1" parent="VOCm2ymEHID-f03OhVJj-1" source="VOCm2ymEHID-f03OhVJj-11" target="b-DLqOWruej7zH0G7Wje-10">
          <mxGeometry relative="1" as="geometry" />
        </mxCell>
        <mxCell id="VOCm2ymEHID-f03OhVJj-11" value="felszereléskép&amp;nbsp;feltöltés module" style="rounded=0;whiteSpace=wrap;html=1;" vertex="1" parent="VOCm2ymEHID-f03OhVJj-1">
          <mxGeometry x="560" y="690" width="120" height="60" as="geometry" />
        </mxCell>
        <mxCell id="b-DLqOWruej7zH0G7Wje-8" style="edgeStyle=orthogonalEdgeStyle;rounded=0;orthogonalLoop=1;jettySize=auto;html=1;exitX=1;exitY=0.5;exitDx=0;exitDy=0;entryX=0;entryY=0.5;entryDx=0;entryDy=0;" edge="1" parent="VOCm2ymEHID-f03OhVJj-1" source="VOCm2ymEHID-f03OhVJj-12" target="VOCm2ymEHID-f03OhVJj-13">
          <mxGeometry relative="1" as="geometry" />
        </mxCell>
        <mxCell id="b-DLqOWruej7zH0G7Wje-9" style="edgeStyle=orthogonalEdgeStyle;rounded=0;orthogonalLoop=1;jettySize=auto;html=1;exitX=0.5;exitY=1;exitDx=0;exitDy=0;entryX=0.5;entryY=0;entryDx=0;entryDy=0;" edge="1" parent="VOCm2ymEHID-f03OhVJj-1" source="VOCm2ymEHID-f03OhVJj-12" target="VOCm2ymEHID-f03OhVJj-5">
          <mxGeometry relative="1" as="geometry" />
        </mxCell>
        <mxCell id="VOCm2ymEHID-f03OhVJj-12" value="akarja törölni a kiválasztott elemet?" style="rhombus;whiteSpace=wrap;html=1;" vertex="1" parent="VOCm2ymEHID-f03OhVJj-1">
          <mxGeometry x="374" y="810" width="80" height="80" as="geometry" />
        </mxCell>
        <mxCell id="b-DLqOWruej7zH0G7Wje-14" style="edgeStyle=orthogonalEdgeStyle;rounded=0;orthogonalLoop=1;jettySize=auto;html=1;exitX=1;exitY=0.5;exitDx=0;exitDy=0;entryX=0.5;entryY=1;entryDx=0;entryDy=0;" edge="1" parent="VOCm2ymEHID-f03OhVJj-1" source="VOCm2ymEHID-f03OhVJj-13" target="b-DLqOWruej7zH0G7Wje-10">
          <mxGeometry relative="1" as="geometry" />
        </mxCell>
        <mxCell id="VOCm2ymEHID-f03OhVJj-13" value="törlés module" style="rounded=0;whiteSpace=wrap;html=1;" vertex="1" parent="VOCm2ymEHID-f03OhVJj-1">
          <mxGeometry x="560" y="820" width="120" height="60" as="geometry" />
        </mxCell>
        <mxCell id="b-DLqOWruej7zH0G7Wje-15" style="edgeStyle=orthogonalEdgeStyle;rounded=0;orthogonalLoop=1;jettySize=auto;html=1;exitX=0;exitY=0.5;exitDx=0;exitDy=0;" edge="1" parent="VOCm2ymEHID-f03OhVJj-1" source="b-DLqOWruej7zH0G7Wje-10">
          <mxGeometry relative="1" as="geometry">
            <mxPoint x="430" y="200" as="targetPoint" />
          </mxGeometry>
        </mxCell>
        <mxCell id="b-DLqOWruej7zH0G7Wje-10" value="" style="ellipse;whiteSpace=wrap;html=1;aspect=fixed;" vertex="1" parent="VOCm2ymEHID-f03OhVJj-1">
          <mxGeometry x="740" y="190" width="20" height="20" as="geometry" />
        </mxCell>
        <mxCell id="b-DLqOWruej7zH0G7Wje-16" value="i" style="text;html=1;align=center;verticalAlign=middle;resizable=0;points=[];autosize=1;strokeColor=none;fillColor=none;" vertex="1" parent="VOCm2ymEHID-f03OhVJj-1">
          <mxGeometry x="445" y="358" width="30" height="30" as="geometry" />
        </mxCell>
        <mxCell id="b-DLqOWruej7zH0G7Wje-17" value="n" style="text;html=1;align=center;verticalAlign=middle;resizable=0;points=[];autosize=1;strokeColor=none;fillColor=none;" vertex="1" parent="VOCm2ymEHID-f03OhVJj-1">
          <mxGeometry x="415" y="420" width="30" height="30" as="geometry" />
        </mxCell>
        <mxCell id="b-DLqOWruej7zH0G7Wje-18" value="i" style="text;html=1;align=center;verticalAlign=middle;resizable=0;points=[];autosize=1;strokeColor=none;fillColor=none;" vertex="1" parent="VOCm2ymEHID-f03OhVJj-1">
          <mxGeometry x="445" y="538" width="30" height="30" as="geometry" />
        </mxCell>
        <mxCell id="b-DLqOWruej7zH0G7Wje-19" value="n" style="text;html=1;align=center;verticalAlign=middle;resizable=0;points=[];autosize=1;strokeColor=none;fillColor=none;" vertex="1" parent="VOCm2ymEHID-f03OhVJj-1">
          <mxGeometry x="415" y="600" width="30" height="30" as="geometry" />
        </mxCell>
        <mxCell id="b-DLqOWruej7zH0G7Wje-20" value="i" style="text;html=1;align=center;verticalAlign=middle;resizable=0;points=[];autosize=1;strokeColor=none;fillColor=none;" vertex="1" parent="VOCm2ymEHID-f03OhVJj-1">
          <mxGeometry x="445" y="688" width="30" height="30" as="geometry" />
        </mxCell>
        <mxCell id="b-DLqOWruej7zH0G7Wje-21" value="n" style="text;html=1;align=center;verticalAlign=middle;resizable=0;points=[];autosize=1;strokeColor=none;fillColor=none;" vertex="1" parent="VOCm2ymEHID-f03OhVJj-1">
          <mxGeometry x="415" y="748" width="30" height="30" as="geometry" />
        </mxCell>
        <mxCell id="b-DLqOWruej7zH0G7Wje-22" value="i" style="text;html=1;align=center;verticalAlign=middle;resizable=0;points=[];autosize=1;strokeColor=none;fillColor=none;" vertex="1" parent="VOCm2ymEHID-f03OhVJj-1">
          <mxGeometry x="445" y="818" width="30" height="30" as="geometry" />
        </mxCell>
        <mxCell id="b-DLqOWruej7zH0G7Wje-23" value="n" style="text;html=1;align=center;verticalAlign=middle;resizable=0;points=[];autosize=1;strokeColor=none;fillColor=none;" vertex="1" parent="VOCm2ymEHID-f03OhVJj-1">
          <mxGeometry x="425" y="878" width="30" height="30" as="geometry" />
        </mxCell>
      </root>
    </mxGraphModel>
  </diagram>
  <diagram id="4pIxPhjj4IkY9h-EdWRP" name="törlés module">
    <mxGraphModel dx="1434" dy="694" grid="1" gridSize="10" guides="1" tooltips="1" connect="1" arrows="1" fold="1" page="1" pageScale="1" pageWidth="827" pageHeight="1169" math="0" shadow="0">
      <root>
        <mxCell id="0" />
        <mxCell id="1" parent="0" />
        <mxCell id="yBdtA8fxLB1pTh5ccXjP-1" style="edgeStyle=orthogonalEdgeStyle;rounded=0;orthogonalLoop=1;jettySize=auto;html=1;exitX=0.5;exitY=1;exitDx=0;exitDy=0;entryX=0.5;entryY=0;entryDx=0;entryDy=0;" edge="1" parent="1" source="876016lNASmep87Wv-xQ-1" target="_h-Lq6Q3f_GWmExgcYsy-2">
          <mxGeometry relative="1" as="geometry" />
        </mxCell>
        <mxCell id="876016lNASmep87Wv-xQ-1" value="start" style="ellipse;whiteSpace=wrap;html=1;" vertex="1" parent="1">
          <mxGeometry x="360" y="80" width="120" height="80" as="geometry" />
        </mxCell>
        <mxCell id="876016lNASmep87Wv-xQ-2" value="stop" style="ellipse;whiteSpace=wrap;html=1;" vertex="1" parent="1">
          <mxGeometry x="360" y="450" width="120" height="80" as="geometry" />
        </mxCell>
        <mxCell id="_h-Lq6Q3f_GWmExgcYsy-1" value="Törlés module" style="text;html=1;align=center;verticalAlign=middle;whiteSpace=wrap;rounded=0;fontSize=24;" vertex="1" parent="1">
          <mxGeometry x="540" y="20" width="270" height="30" as="geometry" />
        </mxCell>
        <mxCell id="yBdtA8fxLB1pTh5ccXjP-2" style="edgeStyle=orthogonalEdgeStyle;rounded=0;orthogonalLoop=1;jettySize=auto;html=1;exitX=1;exitY=0.5;exitDx=0;exitDy=0;entryX=0;entryY=0.5;entryDx=0;entryDy=0;" edge="1" parent="1" source="yBdtA8fxLB1pTh5ccXjP-5" target="bhllXYas1fUmJ47yRoXR-1">
          <mxGeometry relative="1" as="geometry" />
        </mxCell>
        <mxCell id="yBdtA8fxLB1pTh5ccXjP-3" style="edgeStyle=orthogonalEdgeStyle;rounded=0;orthogonalLoop=1;jettySize=auto;html=1;exitX=0.5;exitY=1;exitDx=0;exitDy=0;entryX=0.5;entryY=0;entryDx=0;entryDy=0;" edge="1" parent="1" source="_h-Lq6Q3f_GWmExgcYsy-2" target="yBdtA8fxLB1pTh5ccXjP-5">
          <mxGeometry relative="1" as="geometry" />
        </mxCell>
        <mxCell id="_h-Lq6Q3f_GWmExgcYsy-2" value="ki: biztosan törli a kiválasztott elemet?" style="shape=parallelogram;perimeter=parallelogramPerimeter;whiteSpace=wrap;html=1;fixedSize=1;" vertex="1" parent="1">
          <mxGeometry x="360" y="220" width="120" height="60" as="geometry" />
        </mxCell>
        <mxCell id="yBdtA8fxLB1pTh5ccXjP-9" style="edgeStyle=orthogonalEdgeStyle;rounded=0;orthogonalLoop=1;jettySize=auto;html=1;exitX=0.5;exitY=1;exitDx=0;exitDy=0;" edge="1" parent="1" source="bhllXYas1fUmJ47yRoXR-1">
          <mxGeometry relative="1" as="geometry">
            <mxPoint x="430" y="430" as="targetPoint" />
            <Array as="points">
              <mxPoint x="630" y="415" />
              <mxPoint x="631" y="415" />
            </Array>
          </mxGeometry>
        </mxCell>
        <mxCell id="bhllXYas1fUmJ47yRoXR-1" value="kiválasztott elem törlése" style="shape=parallelogram;perimeter=parallelogramPerimeter;whiteSpace=wrap;html=1;fixedSize=1;" vertex="1" parent="1">
          <mxGeometry x="570" y="330" width="120" height="60" as="geometry" />
        </mxCell>
        <mxCell id="yBdtA8fxLB1pTh5ccXjP-6" style="edgeStyle=orthogonalEdgeStyle;rounded=0;orthogonalLoop=1;jettySize=auto;html=1;exitX=0.5;exitY=1;exitDx=0;exitDy=0;entryX=0.5;entryY=0;entryDx=0;entryDy=0;" edge="1" parent="1" source="yBdtA8fxLB1pTh5ccXjP-5" target="876016lNASmep87Wv-xQ-2">
          <mxGeometry relative="1" as="geometry" />
        </mxCell>
        <mxCell id="yBdtA8fxLB1pTh5ccXjP-5" value="törli?" style="rhombus;whiteSpace=wrap;html=1;" vertex="1" parent="1">
          <mxGeometry x="380" y="320" width="80" height="80" as="geometry" />
        </mxCell>
        <mxCell id="yBdtA8fxLB1pTh5ccXjP-7" value="i" style="text;html=1;align=center;verticalAlign=middle;resizable=0;points=[];autosize=1;strokeColor=none;fillColor=none;" vertex="1" parent="1">
          <mxGeometry x="445" y="328" width="30" height="30" as="geometry" />
        </mxCell>
        <mxCell id="yBdtA8fxLB1pTh5ccXjP-8" value="n" style="text;html=1;align=center;verticalAlign=middle;resizable=0;points=[];autosize=1;strokeColor=none;fillColor=none;" vertex="1" parent="1">
          <mxGeometry x="425" y="378" width="30" height="30" as="geometry" />
        </mxCell>
      </root>
    </mxGraphModel>
  </diagram>
  <diagram id="t9QudlmGayB7hedXFug8" name="felhasználó létrehozás module">
    <mxGraphModel dx="1434" dy="694" grid="1" gridSize="10" guides="1" tooltips="1" connect="1" arrows="1" fold="1" page="1" pageScale="1" pageWidth="827" pageHeight="1169" math="0" shadow="0">
      <root>
        <mxCell id="0" />
        <mxCell id="1" parent="0" />
        <mxCell id="M3QWR4yka5OrpersgD8_-1" value="Felhasználó létrehozás module" style="text;html=1;align=center;verticalAlign=middle;whiteSpace=wrap;rounded=0;fontSize=24;" vertex="1" parent="1">
          <mxGeometry x="540" y="20" width="270" height="30" as="geometry" />
        </mxCell>
        <mxCell id="opn8StT-oGpstMV4u97H-1" style="edgeStyle=orthogonalEdgeStyle;rounded=0;orthogonalLoop=1;jettySize=auto;html=1;exitX=0.5;exitY=1;exitDx=0;exitDy=0;entryX=0.5;entryY=0;entryDx=0;entryDy=0;" edge="1" parent="1" source="M3QWR4yka5OrpersgD8_-2" target="M3QWR4yka5OrpersgD8_-4">
          <mxGeometry relative="1" as="geometry" />
        </mxCell>
        <mxCell id="M3QWR4yka5OrpersgD8_-2" value="start" style="ellipse;whiteSpace=wrap;html=1;" vertex="1" parent="1">
          <mxGeometry x="380" y="90" width="120" height="80" as="geometry" />
        </mxCell>
        <mxCell id="M3QWR4yka5OrpersgD8_-3" value="stop" style="ellipse;whiteSpace=wrap;html=1;" vertex="1" parent="1">
          <mxGeometry x="570" y="940" width="120" height="80" as="geometry" />
        </mxCell>
        <mxCell id="opn8StT-oGpstMV4u97H-2" style="edgeStyle=orthogonalEdgeStyle;rounded=0;orthogonalLoop=1;jettySize=auto;html=1;exitX=0.5;exitY=1;exitDx=0;exitDy=0;entryX=0.5;entryY=0;entryDx=0;entryDy=0;" edge="1" parent="1" source="M3QWR4yka5OrpersgD8_-4" target="M3QWR4yka5OrpersgD8_-5">
          <mxGeometry relative="1" as="geometry" />
        </mxCell>
        <mxCell id="M3QWR4yka5OrpersgD8_-4" value="be: email" style="shape=parallelogram;perimeter=parallelogramPerimeter;whiteSpace=wrap;html=1;fixedSize=1;" vertex="1" parent="1">
          <mxGeometry x="380" y="260" width="120" height="60" as="geometry" />
        </mxCell>
        <mxCell id="opn8StT-oGpstMV4u97H-3" style="edgeStyle=orthogonalEdgeStyle;rounded=0;orthogonalLoop=1;jettySize=auto;html=1;exitX=1;exitY=0.5;exitDx=0;exitDy=0;entryX=0;entryY=0.5;entryDx=0;entryDy=0;" edge="1" parent="1" source="M3QWR4yka5OrpersgD8_-5" target="M3QWR4yka5OrpersgD8_-6">
          <mxGeometry relative="1" as="geometry" />
        </mxCell>
        <mxCell id="opn8StT-oGpstMV4u97H-4" style="edgeStyle=orthogonalEdgeStyle;rounded=0;orthogonalLoop=1;jettySize=auto;html=1;exitX=0.5;exitY=1;exitDx=0;exitDy=0;entryX=0.5;entryY=0;entryDx=0;entryDy=0;" edge="1" parent="1" source="M3QWR4yka5OrpersgD8_-5" target="M3QWR4yka5OrpersgD8_-7">
          <mxGeometry relative="1" as="geometry" />
        </mxCell>
        <mxCell id="M3QWR4yka5OrpersgD8_-5" value="jelszó generálása?" style="rhombus;whiteSpace=wrap;html=1;" vertex="1" parent="1">
          <mxGeometry x="400" y="390" width="80" height="80" as="geometry" />
        </mxCell>
        <mxCell id="qIxmSxVhAKo8Smv-CrFX-8" style="edgeStyle=orthogonalEdgeStyle;rounded=0;orthogonalLoop=1;jettySize=auto;html=1;exitX=0.5;exitY=1;exitDx=0;exitDy=0;" edge="1" parent="1" source="M3QWR4yka5OrpersgD8_-6">
          <mxGeometry relative="1" as="geometry">
            <mxPoint x="450" y="500" as="targetPoint" />
            <Array as="points">
              <mxPoint x="630" y="480" />
              <mxPoint x="631" y="480" />
            </Array>
          </mxGeometry>
        </mxCell>
        <mxCell id="M3QWR4yka5OrpersgD8_-6" value="ki: jelszó" style="shape=parallelogram;perimeter=parallelogramPerimeter;whiteSpace=wrap;html=1;fixedSize=1;" vertex="1" parent="1">
          <mxGeometry x="570" y="400" width="120" height="60" as="geometry" />
        </mxCell>
        <mxCell id="opn8StT-oGpstMV4u97H-5" style="edgeStyle=orthogonalEdgeStyle;rounded=0;orthogonalLoop=1;jettySize=auto;html=1;exitX=0.5;exitY=1;exitDx=0;exitDy=0;entryX=0.5;entryY=0;entryDx=0;entryDy=0;" edge="1" parent="1" source="M3QWR4yka5OrpersgD8_-7" target="M3QWR4yka5OrpersgD8_-8">
          <mxGeometry relative="1" as="geometry" />
        </mxCell>
        <mxCell id="M3QWR4yka5OrpersgD8_-7" value="be: admin felhasználó?" style="shape=parallelogram;perimeter=parallelogramPerimeter;whiteSpace=wrap;html=1;fixedSize=1;" vertex="1" parent="1">
          <mxGeometry x="380" y="530" width="120" height="60" as="geometry" />
        </mxCell>
        <mxCell id="opn8StT-oGpstMV4u97H-6" style="edgeStyle=orthogonalEdgeStyle;rounded=0;orthogonalLoop=1;jettySize=auto;html=1;exitX=0.5;exitY=1;exitDx=0;exitDy=0;entryX=0.5;entryY=0;entryDx=0;entryDy=0;" edge="1" parent="1" source="M3QWR4yka5OrpersgD8_-8" target="M3QWR4yka5OrpersgD8_-11">
          <mxGeometry relative="1" as="geometry" />
        </mxCell>
        <mxCell id="opn8StT-oGpstMV4u97H-8" style="edgeStyle=orthogonalEdgeStyle;rounded=0;orthogonalLoop=1;jettySize=auto;html=1;exitX=1;exitY=0.5;exitDx=0;exitDy=0;entryX=0;entryY=0.5;entryDx=0;entryDy=0;" edge="1" parent="1" source="M3QWR4yka5OrpersgD8_-8" target="M3QWR4yka5OrpersgD8_-10">
          <mxGeometry relative="1" as="geometry" />
        </mxCell>
        <mxCell id="M3QWR4yka5OrpersgD8_-8" value="akarja menteni?" style="rhombus;whiteSpace=wrap;html=1;" vertex="1" parent="1">
          <mxGeometry x="400" y="640" width="80" height="80" as="geometry" />
        </mxCell>
        <mxCell id="nSoi4Vw63fAfqiDq1IUk-1" style="edgeStyle=orthogonalEdgeStyle;rounded=0;orthogonalLoop=1;jettySize=auto;html=1;exitX=0.5;exitY=1;exitDx=0;exitDy=0;entryX=0.5;entryY=0;entryDx=0;entryDy=0;" edge="1" parent="1" source="M3QWR4yka5OrpersgD8_-10" target="M3QWR4yka5OrpersgD8_-12">
          <mxGeometry relative="1" as="geometry" />
        </mxCell>
        <mxCell id="M3QWR4yka5OrpersgD8_-10" value="felhasználó létrehozása" style="shape=parallelogram;perimeter=parallelogramPerimeter;whiteSpace=wrap;html=1;fixedSize=1;" vertex="1" parent="1">
          <mxGeometry x="570" y="650" width="120" height="60" as="geometry" />
        </mxCell>
        <mxCell id="opn8StT-oGpstMV4u97H-7" style="edgeStyle=orthogonalEdgeStyle;rounded=0;orthogonalLoop=1;jettySize=auto;html=1;exitX=0.5;exitY=1;exitDx=0;exitDy=0;" edge="1" parent="1" source="M3QWR4yka5OrpersgD8_-11">
          <mxGeometry relative="1" as="geometry">
            <mxPoint x="430" y="210" as="targetPoint" />
            <Array as="points">
              <mxPoint x="440" y="880" />
              <mxPoint x="261" y="880" />
            </Array>
          </mxGeometry>
        </mxCell>
        <mxCell id="qIxmSxVhAKo8Smv-CrFX-1" style="edgeStyle=orthogonalEdgeStyle;rounded=0;orthogonalLoop=1;jettySize=auto;html=1;exitX=1;exitY=0.5;exitDx=0;exitDy=0;entryX=0;entryY=0.5;entryDx=0;entryDy=0;" edge="1" parent="1" source="M3QWR4yka5OrpersgD8_-11" target="M3QWR4yka5OrpersgD8_-12">
          <mxGeometry relative="1" as="geometry" />
        </mxCell>
        <mxCell id="M3QWR4yka5OrpersgD8_-11" value="visszalép mentés nélkül?" style="rhombus;whiteSpace=wrap;html=1;" vertex="1" parent="1">
          <mxGeometry x="400" y="780" width="80" height="80" as="geometry" />
        </mxCell>
        <mxCell id="qIxmSxVhAKo8Smv-CrFX-10" style="edgeStyle=orthogonalEdgeStyle;rounded=0;orthogonalLoop=1;jettySize=auto;html=1;exitX=0.5;exitY=1;exitDx=0;exitDy=0;entryX=0.5;entryY=0;entryDx=0;entryDy=0;" edge="1" parent="1" source="M3QWR4yka5OrpersgD8_-12" target="M3QWR4yka5OrpersgD8_-3">
          <mxGeometry relative="1" as="geometry">
            <mxPoint x="630" y="900" as="targetPoint" />
          </mxGeometry>
        </mxCell>
        <mxCell id="M3QWR4yka5OrpersgD8_-12" value="felhasználók module" style="rounded=0;whiteSpace=wrap;html=1;" vertex="1" parent="1">
          <mxGeometry x="570" y="790" width="120" height="60" as="geometry" />
        </mxCell>
        <mxCell id="qIxmSxVhAKo8Smv-CrFX-2" value="i" style="text;html=1;align=center;verticalAlign=middle;resizable=0;points=[];autosize=1;strokeColor=none;fillColor=none;" vertex="1" parent="1">
          <mxGeometry x="470" y="400" width="30" height="30" as="geometry" />
        </mxCell>
        <mxCell id="qIxmSxVhAKo8Smv-CrFX-3" value="n" style="text;html=1;align=center;verticalAlign=middle;resizable=0;points=[];autosize=1;strokeColor=none;fillColor=none;" vertex="1" parent="1">
          <mxGeometry x="440" y="460" width="30" height="30" as="geometry" />
        </mxCell>
        <mxCell id="qIxmSxVhAKo8Smv-CrFX-4" value="i" style="text;html=1;align=center;verticalAlign=middle;resizable=0;points=[];autosize=1;strokeColor=none;fillColor=none;" vertex="1" parent="1">
          <mxGeometry x="465" y="648" width="30" height="30" as="geometry" />
        </mxCell>
        <mxCell id="qIxmSxVhAKo8Smv-CrFX-5" value="n" style="text;html=1;align=center;verticalAlign=middle;resizable=0;points=[];autosize=1;strokeColor=none;fillColor=none;" vertex="1" parent="1">
          <mxGeometry x="440" y="710" width="30" height="30" as="geometry" />
        </mxCell>
        <mxCell id="qIxmSxVhAKo8Smv-CrFX-6" value="i" style="text;html=1;align=center;verticalAlign=middle;resizable=0;points=[];autosize=1;strokeColor=none;fillColor=none;" vertex="1" parent="1">
          <mxGeometry x="470" y="790" width="30" height="30" as="geometry" />
        </mxCell>
        <mxCell id="qIxmSxVhAKo8Smv-CrFX-7" value="n" style="text;html=1;align=center;verticalAlign=middle;resizable=0;points=[];autosize=1;strokeColor=none;fillColor=none;" vertex="1" parent="1">
          <mxGeometry x="445" y="848" width="30" height="30" as="geometry" />
        </mxCell>
      </root>
    </mxGraphModel>
  </diagram>
  <diagram name="felhasználó szerkesztés module" id="cw12yZP7CjcBsPuXBHgL">
    <mxGraphModel dx="1434" dy="694" grid="1" gridSize="10" guides="1" tooltips="1" connect="1" arrows="1" fold="1" page="1" pageScale="1" pageWidth="827" pageHeight="1169" math="0" shadow="0">
      <root>
        <mxCell id="BNknTjFG6w71JKI7K3N0-0" />
        <mxCell id="BNknTjFG6w71JKI7K3N0-1" parent="BNknTjFG6w71JKI7K3N0-0" />
        <mxCell id="BNknTjFG6w71JKI7K3N0-2" value="Felhasználó szerkesztés module" style="text;html=1;align=center;verticalAlign=middle;whiteSpace=wrap;rounded=0;fontSize=24;" vertex="1" parent="BNknTjFG6w71JKI7K3N0-1">
          <mxGeometry x="540" y="20" width="270" height="30" as="geometry" />
        </mxCell>
        <mxCell id="xuPErAOc5ns39D7XV05j-0" style="edgeStyle=orthogonalEdgeStyle;rounded=0;orthogonalLoop=1;jettySize=auto;html=1;exitX=0.5;exitY=1;exitDx=0;exitDy=0;entryX=0.5;entryY=0;entryDx=0;entryDy=0;" edge="1" parent="BNknTjFG6w71JKI7K3N0-1" source="BNknTjFG6w71JKI7K3N0-3" target="BNknTjFG6w71JKI7K3N0-5">
          <mxGeometry relative="1" as="geometry" />
        </mxCell>
        <mxCell id="BNknTjFG6w71JKI7K3N0-3" value="start" style="ellipse;whiteSpace=wrap;html=1;" vertex="1" parent="BNknTjFG6w71JKI7K3N0-1">
          <mxGeometry x="380" y="90" width="120" height="80" as="geometry" />
        </mxCell>
        <mxCell id="BNknTjFG6w71JKI7K3N0-4" value="stop" style="ellipse;whiteSpace=wrap;html=1;" vertex="1" parent="BNknTjFG6w71JKI7K3N0-1">
          <mxGeometry x="570" y="930" width="120" height="80" as="geometry" />
        </mxCell>
        <mxCell id="xuPErAOc5ns39D7XV05j-1" style="edgeStyle=orthogonalEdgeStyle;rounded=0;orthogonalLoop=1;jettySize=auto;html=1;exitX=0.5;exitY=1;exitDx=0;exitDy=0;entryX=0.5;entryY=0;entryDx=0;entryDy=0;" edge="1" parent="BNknTjFG6w71JKI7K3N0-1" source="BNknTjFG6w71JKI7K3N0-5" target="BNknTjFG6w71JKI7K3N0-6">
          <mxGeometry relative="1" as="geometry" />
        </mxCell>
        <mxCell id="BNknTjFG6w71JKI7K3N0-5" value="be: email" style="shape=parallelogram;perimeter=parallelogramPerimeter;whiteSpace=wrap;html=1;fixedSize=1;" vertex="1" parent="BNknTjFG6w71JKI7K3N0-1">
          <mxGeometry x="380" y="260" width="120" height="60" as="geometry" />
        </mxCell>
        <mxCell id="xuPErAOc5ns39D7XV05j-2" style="edgeStyle=orthogonalEdgeStyle;rounded=0;orthogonalLoop=1;jettySize=auto;html=1;exitX=0.5;exitY=1;exitDx=0;exitDy=0;entryX=0.5;entryY=0;entryDx=0;entryDy=0;" edge="1" parent="BNknTjFG6w71JKI7K3N0-1" source="BNknTjFG6w71JKI7K3N0-6" target="BNknTjFG6w71JKI7K3N0-8">
          <mxGeometry relative="1" as="geometry" />
        </mxCell>
        <mxCell id="xuPErAOc5ns39D7XV05j-3" style="edgeStyle=orthogonalEdgeStyle;rounded=0;orthogonalLoop=1;jettySize=auto;html=1;exitX=1;exitY=0.5;exitDx=0;exitDy=0;entryX=0;entryY=0.5;entryDx=0;entryDy=0;" edge="1" parent="BNknTjFG6w71JKI7K3N0-1" source="BNknTjFG6w71JKI7K3N0-6" target="BNknTjFG6w71JKI7K3N0-7">
          <mxGeometry relative="1" as="geometry" />
        </mxCell>
        <mxCell id="BNknTjFG6w71JKI7K3N0-6" value="új jelszó generálása?" style="rhombus;whiteSpace=wrap;html=1;" vertex="1" parent="BNknTjFG6w71JKI7K3N0-1">
          <mxGeometry x="400" y="390" width="80" height="80" as="geometry" />
        </mxCell>
        <mxCell id="xuPErAOc5ns39D7XV05j-4" style="edgeStyle=orthogonalEdgeStyle;rounded=0;orthogonalLoop=1;jettySize=auto;html=1;exitX=0.5;exitY=1;exitDx=0;exitDy=0;" edge="1" parent="BNknTjFG6w71JKI7K3N0-1" source="BNknTjFG6w71JKI7K3N0-7">
          <mxGeometry relative="1" as="geometry">
            <mxPoint x="450" y="500" as="targetPoint" />
            <Array as="points">
              <mxPoint x="630" y="480" />
              <mxPoint x="631" y="480" />
            </Array>
          </mxGeometry>
        </mxCell>
        <mxCell id="BNknTjFG6w71JKI7K3N0-7" value="ki: jelszó" style="shape=parallelogram;perimeter=parallelogramPerimeter;whiteSpace=wrap;html=1;fixedSize=1;" vertex="1" parent="BNknTjFG6w71JKI7K3N0-1">
          <mxGeometry x="570" y="400" width="120" height="60" as="geometry" />
        </mxCell>
        <mxCell id="xuPErAOc5ns39D7XV05j-5" style="edgeStyle=orthogonalEdgeStyle;rounded=0;orthogonalLoop=1;jettySize=auto;html=1;exitX=0.5;exitY=1;exitDx=0;exitDy=0;entryX=0.5;entryY=0;entryDx=0;entryDy=0;" edge="1" parent="BNknTjFG6w71JKI7K3N0-1" source="BNknTjFG6w71JKI7K3N0-8" target="BNknTjFG6w71JKI7K3N0-9">
          <mxGeometry relative="1" as="geometry" />
        </mxCell>
        <mxCell id="BNknTjFG6w71JKI7K3N0-8" value="be: jogkör" style="shape=parallelogram;perimeter=parallelogramPerimeter;whiteSpace=wrap;html=1;fixedSize=1;" vertex="1" parent="BNknTjFG6w71JKI7K3N0-1">
          <mxGeometry x="380" y="530" width="120" height="60" as="geometry" />
        </mxCell>
        <mxCell id="xuPErAOc5ns39D7XV05j-6" style="edgeStyle=orthogonalEdgeStyle;rounded=0;orthogonalLoop=1;jettySize=auto;html=1;exitX=1;exitY=0.5;exitDx=0;exitDy=0;entryX=0;entryY=0.5;entryDx=0;entryDy=0;" edge="1" parent="BNknTjFG6w71JKI7K3N0-1" source="BNknTjFG6w71JKI7K3N0-9" target="BNknTjFG6w71JKI7K3N0-10">
          <mxGeometry relative="1" as="geometry" />
        </mxCell>
        <mxCell id="mWZYtfUUbVjX4LucVkwg-1" style="edgeStyle=orthogonalEdgeStyle;rounded=0;orthogonalLoop=1;jettySize=auto;html=1;exitX=0.5;exitY=1;exitDx=0;exitDy=0;entryX=0.5;entryY=0;entryDx=0;entryDy=0;" edge="1" parent="BNknTjFG6w71JKI7K3N0-1" source="BNknTjFG6w71JKI7K3N0-9" target="BNknTjFG6w71JKI7K3N0-11">
          <mxGeometry relative="1" as="geometry" />
        </mxCell>
        <mxCell id="BNknTjFG6w71JKI7K3N0-9" value="akarja menteni?" style="rhombus;whiteSpace=wrap;html=1;" vertex="1" parent="BNknTjFG6w71JKI7K3N0-1">
          <mxGeometry x="400" y="640" width="80" height="80" as="geometry" />
        </mxCell>
        <mxCell id="mWZYtfUUbVjX4LucVkwg-0" style="edgeStyle=orthogonalEdgeStyle;rounded=0;orthogonalLoop=1;jettySize=auto;html=1;exitX=0.5;exitY=1;exitDx=0;exitDy=0;entryX=0.5;entryY=0;entryDx=0;entryDy=0;" edge="1" parent="BNknTjFG6w71JKI7K3N0-1" source="BNknTjFG6w71JKI7K3N0-10" target="BNknTjFG6w71JKI7K3N0-12">
          <mxGeometry relative="1" as="geometry" />
        </mxCell>
        <mxCell id="BNknTjFG6w71JKI7K3N0-10" value="felhasználó mentése" style="shape=parallelogram;perimeter=parallelogramPerimeter;whiteSpace=wrap;html=1;fixedSize=1;" vertex="1" parent="BNknTjFG6w71JKI7K3N0-1">
          <mxGeometry x="570" y="650" width="120" height="60" as="geometry" />
        </mxCell>
        <mxCell id="34h9b6yl-n73iF5TpHIZ-1" style="edgeStyle=orthogonalEdgeStyle;rounded=0;orthogonalLoop=1;jettySize=auto;html=1;exitX=1;exitY=0.5;exitDx=0;exitDy=0;entryX=0;entryY=0.5;entryDx=0;entryDy=0;" edge="1" parent="BNknTjFG6w71JKI7K3N0-1" source="BNknTjFG6w71JKI7K3N0-11" target="BNknTjFG6w71JKI7K3N0-12">
          <mxGeometry relative="1" as="geometry" />
        </mxCell>
        <mxCell id="34h9b6yl-n73iF5TpHIZ-2" style="edgeStyle=orthogonalEdgeStyle;rounded=0;orthogonalLoop=1;jettySize=auto;html=1;exitX=0;exitY=0.5;exitDx=0;exitDy=0;" edge="1" parent="BNknTjFG6w71JKI7K3N0-1" source="BNknTjFG6w71JKI7K3N0-11">
          <mxGeometry relative="1" as="geometry">
            <mxPoint x="430" y="200" as="targetPoint" />
            <Array as="points">
              <mxPoint x="311" y="820" />
            </Array>
          </mxGeometry>
        </mxCell>
        <mxCell id="BNknTjFG6w71JKI7K3N0-11" value="visszalép mentés nélkül?" style="rhombus;whiteSpace=wrap;html=1;" vertex="1" parent="BNknTjFG6w71JKI7K3N0-1">
          <mxGeometry x="400" y="780" width="80" height="80" as="geometry" />
        </mxCell>
        <mxCell id="34h9b6yl-n73iF5TpHIZ-0" style="edgeStyle=orthogonalEdgeStyle;rounded=0;orthogonalLoop=1;jettySize=auto;html=1;exitX=0.5;exitY=1;exitDx=0;exitDy=0;entryX=0.5;entryY=0;entryDx=0;entryDy=0;" edge="1" parent="BNknTjFG6w71JKI7K3N0-1" source="BNknTjFG6w71JKI7K3N0-12" target="BNknTjFG6w71JKI7K3N0-4">
          <mxGeometry relative="1" as="geometry" />
        </mxCell>
        <mxCell id="BNknTjFG6w71JKI7K3N0-12" value="felhasználók module" style="rounded=0;whiteSpace=wrap;html=1;" vertex="1" parent="BNknTjFG6w71JKI7K3N0-1">
          <mxGeometry x="570" y="790" width="120" height="60" as="geometry" />
        </mxCell>
        <mxCell id="34h9b6yl-n73iF5TpHIZ-3" value="i" style="text;html=1;align=center;verticalAlign=middle;resizable=0;points=[];autosize=1;strokeColor=none;fillColor=none;" vertex="1" parent="BNknTjFG6w71JKI7K3N0-1">
          <mxGeometry x="465" y="398" width="30" height="30" as="geometry" />
        </mxCell>
        <mxCell id="34h9b6yl-n73iF5TpHIZ-4" value="n" style="text;html=1;align=center;verticalAlign=middle;resizable=0;points=[];autosize=1;strokeColor=none;fillColor=none;" vertex="1" parent="BNknTjFG6w71JKI7K3N0-1">
          <mxGeometry x="445" y="448" width="30" height="30" as="geometry" />
        </mxCell>
        <mxCell id="34h9b6yl-n73iF5TpHIZ-5" value="i" style="text;html=1;align=center;verticalAlign=middle;resizable=0;points=[];autosize=1;strokeColor=none;fillColor=none;" vertex="1" parent="BNknTjFG6w71JKI7K3N0-1">
          <mxGeometry x="475" y="648" width="30" height="30" as="geometry" />
        </mxCell>
        <mxCell id="34h9b6yl-n73iF5TpHIZ-6" value="n" style="text;html=1;align=center;verticalAlign=middle;resizable=0;points=[];autosize=1;strokeColor=none;fillColor=none;" vertex="1" parent="BNknTjFG6w71JKI7K3N0-1">
          <mxGeometry x="445" y="710" width="30" height="30" as="geometry" />
        </mxCell>
        <mxCell id="34h9b6yl-n73iF5TpHIZ-7" value="i" style="text;html=1;align=center;verticalAlign=middle;resizable=0;points=[];autosize=1;strokeColor=none;fillColor=none;" vertex="1" parent="BNknTjFG6w71JKI7K3N0-1">
          <mxGeometry x="465" y="788" width="30" height="30" as="geometry" />
        </mxCell>
        <mxCell id="34h9b6yl-n73iF5TpHIZ-8" value="n" style="text;html=1;align=center;verticalAlign=middle;resizable=0;points=[];autosize=1;strokeColor=none;fillColor=none;" vertex="1" parent="BNknTjFG6w71JKI7K3N0-1">
          <mxGeometry x="375" y="788" width="30" height="30" as="geometry" />
        </mxCell>
      </root>
    </mxGraphModel>
  </diagram>
  <diagram id="w96i0owSWeu4LljiPEL9" name="foglalás szerkesztés module">
    <mxGraphModel dx="1434" dy="694" grid="1" gridSize="10" guides="1" tooltips="1" connect="1" arrows="1" fold="1" page="1" pageScale="1" pageWidth="827" pageHeight="1169" math="0" shadow="0">
      <root>
        <mxCell id="0" />
        <mxCell id="1" parent="0" />
        <mxCell id="m3W_yr-4TeU8a0T5-6YU-1" value="Foglalás szerkesztés module" style="text;html=1;align=center;verticalAlign=middle;whiteSpace=wrap;rounded=0;fontSize=24;" vertex="1" parent="1">
          <mxGeometry x="540" y="20" width="270" height="30" as="geometry" />
        </mxCell>
        <mxCell id="EEbPFHpirRDgUesiy9N8-1" style="edgeStyle=orthogonalEdgeStyle;rounded=0;orthogonalLoop=1;jettySize=auto;html=1;exitX=0.5;exitY=1;exitDx=0;exitDy=0;entryX=0.5;entryY=0;entryDx=0;entryDy=0;" edge="1" parent="1" source="m3W_yr-4TeU8a0T5-6YU-2" target="m3W_yr-4TeU8a0T5-6YU-4">
          <mxGeometry relative="1" as="geometry" />
        </mxCell>
        <mxCell id="m3W_yr-4TeU8a0T5-6YU-2" value="start" style="ellipse;whiteSpace=wrap;html=1;" vertex="1" parent="1">
          <mxGeometry x="370" y="70" width="120" height="80" as="geometry" />
        </mxCell>
        <mxCell id="m3W_yr-4TeU8a0T5-6YU-3" value="stop" style="ellipse;whiteSpace=wrap;html=1;" vertex="1" parent="1">
          <mxGeometry x="550" y="1080" width="120" height="80" as="geometry" />
        </mxCell>
        <mxCell id="EEbPFHpirRDgUesiy9N8-2" style="edgeStyle=orthogonalEdgeStyle;rounded=0;orthogonalLoop=1;jettySize=auto;html=1;exitX=0.5;exitY=1;exitDx=0;exitDy=0;entryX=0.5;entryY=0;entryDx=0;entryDy=0;" edge="1" parent="1" source="m3W_yr-4TeU8a0T5-6YU-4" target="m3W_yr-4TeU8a0T5-6YU-5">
          <mxGeometry relative="1" as="geometry" />
        </mxCell>
        <mxCell id="m3W_yr-4TeU8a0T5-6YU-4" value="ki: kezdés dátuma" style="shape=parallelogram;perimeter=parallelogramPerimeter;whiteSpace=wrap;html=1;fixedSize=1;" vertex="1" parent="1">
          <mxGeometry x="370" y="200" width="120" height="60" as="geometry" />
        </mxCell>
        <mxCell id="EEbPFHpirRDgUesiy9N8-3" style="edgeStyle=orthogonalEdgeStyle;rounded=0;orthogonalLoop=1;jettySize=auto;html=1;exitX=0.5;exitY=1;exitDx=0;exitDy=0;entryX=0.5;entryY=0;entryDx=0;entryDy=0;" edge="1" parent="1" source="m3W_yr-4TeU8a0T5-6YU-5" target="m3W_yr-4TeU8a0T5-6YU-6">
          <mxGeometry relative="1" as="geometry" />
        </mxCell>
        <mxCell id="m3W_yr-4TeU8a0T5-6YU-5" value="ki: befejezés dátuma" style="shape=parallelogram;perimeter=parallelogramPerimeter;whiteSpace=wrap;html=1;fixedSize=1;" vertex="1" parent="1">
          <mxGeometry x="370" y="300" width="120" height="60" as="geometry" />
        </mxCell>
        <mxCell id="EEbPFHpirRDgUesiy9N8-4" style="edgeStyle=orthogonalEdgeStyle;rounded=0;orthogonalLoop=1;jettySize=auto;html=1;exitX=0.5;exitY=1;exitDx=0;exitDy=0;entryX=0.5;entryY=0;entryDx=0;entryDy=0;" edge="1" parent="1" source="m3W_yr-4TeU8a0T5-6YU-6" target="m3W_yr-4TeU8a0T5-6YU-7">
          <mxGeometry relative="1" as="geometry" />
        </mxCell>
        <mxCell id="m3W_yr-4TeU8a0T5-6YU-6" value="ki: összeg" style="shape=parallelogram;perimeter=parallelogramPerimeter;whiteSpace=wrap;html=1;fixedSize=1;" vertex="1" parent="1">
          <mxGeometry x="370" y="400" width="120" height="60" as="geometry" />
        </mxCell>
        <mxCell id="EEbPFHpirRDgUesiy9N8-5" style="edgeStyle=orthogonalEdgeStyle;rounded=0;orthogonalLoop=1;jettySize=auto;html=1;exitX=0.5;exitY=1;exitDx=0;exitDy=0;entryX=0.5;entryY=0;entryDx=0;entryDy=0;" edge="1" parent="1" source="m3W_yr-4TeU8a0T5-6YU-7" target="m3W_yr-4TeU8a0T5-6YU-8">
          <mxGeometry relative="1" as="geometry" />
        </mxCell>
        <mxCell id="m3W_yr-4TeU8a0T5-6YU-7" value="be: foglalás állapota" style="shape=parallelogram;perimeter=parallelogramPerimeter;whiteSpace=wrap;html=1;fixedSize=1;" vertex="1" parent="1">
          <mxGeometry x="370" y="480" width="120" height="60" as="geometry" />
        </mxCell>
        <mxCell id="EEbPFHpirRDgUesiy9N8-6" style="edgeStyle=orthogonalEdgeStyle;rounded=0;orthogonalLoop=1;jettySize=auto;html=1;exitX=0.5;exitY=1;exitDx=0;exitDy=0;entryX=0.5;entryY=0;entryDx=0;entryDy=0;" edge="1" parent="1" source="m3W_yr-4TeU8a0T5-6YU-8" target="m3W_yr-4TeU8a0T5-6YU-9">
          <mxGeometry relative="1" as="geometry" />
        </mxCell>
        <mxCell id="m3W_yr-4TeU8a0T5-6YU-8" value="ki: létrehozva" style="shape=parallelogram;perimeter=parallelogramPerimeter;whiteSpace=wrap;html=1;fixedSize=1;" vertex="1" parent="1">
          <mxGeometry x="370" y="570" width="120" height="60" as="geometry" />
        </mxCell>
        <mxCell id="EEbPFHpirRDgUesiy9N8-7" style="edgeStyle=orthogonalEdgeStyle;rounded=0;orthogonalLoop=1;jettySize=auto;html=1;exitX=0.5;exitY=1;exitDx=0;exitDy=0;entryX=0.5;entryY=0;entryDx=0;entryDy=0;" edge="1" parent="1" source="m3W_yr-4TeU8a0T5-6YU-9" target="m3W_yr-4TeU8a0T5-6YU-10">
          <mxGeometry relative="1" as="geometry" />
        </mxCell>
        <mxCell id="m3W_yr-4TeU8a0T5-6YU-9" value="ki: bérlési idő (napokban)" style="shape=parallelogram;perimeter=parallelogramPerimeter;whiteSpace=wrap;html=1;fixedSize=1;" vertex="1" parent="1">
          <mxGeometry x="370" y="660" width="120" height="60" as="geometry" />
        </mxCell>
        <mxCell id="EEbPFHpirRDgUesiy9N8-8" style="edgeStyle=orthogonalEdgeStyle;rounded=0;orthogonalLoop=1;jettySize=auto;html=1;exitX=1;exitY=0.5;exitDx=0;exitDy=0;entryX=0;entryY=0.5;entryDx=0;entryDy=0;" edge="1" parent="1" source="m3W_yr-4TeU8a0T5-6YU-10" target="m3W_yr-4TeU8a0T5-6YU-11">
          <mxGeometry relative="1" as="geometry" />
        </mxCell>
        <mxCell id="EEbPFHpirRDgUesiy9N8-17" style="edgeStyle=orthogonalEdgeStyle;rounded=0;orthogonalLoop=1;jettySize=auto;html=1;exitX=0.5;exitY=1;exitDx=0;exitDy=0;entryX=0.5;entryY=0;entryDx=0;entryDy=0;" edge="1" parent="1" source="m3W_yr-4TeU8a0T5-6YU-10" target="m3W_yr-4TeU8a0T5-6YU-12">
          <mxGeometry relative="1" as="geometry" />
        </mxCell>
        <mxCell id="m3W_yr-4TeU8a0T5-6YU-10" value="akarja megtekinteni a tételeket?" style="rhombus;whiteSpace=wrap;html=1;" vertex="1" parent="1">
          <mxGeometry x="390" y="750" width="80" height="80" as="geometry" />
        </mxCell>
        <mxCell id="EEbPFHpirRDgUesiy9N8-16" style="edgeStyle=orthogonalEdgeStyle;rounded=0;orthogonalLoop=1;jettySize=auto;html=1;exitX=0.5;exitY=1;exitDx=0;exitDy=0;" edge="1" parent="1" source="m3W_yr-4TeU8a0T5-6YU-11">
          <mxGeometry relative="1" as="geometry">
            <mxPoint x="440" y="840" as="targetPoint" />
            <Array as="points">
              <mxPoint x="610" y="830" />
              <mxPoint x="610" y="830" />
            </Array>
          </mxGeometry>
        </mxCell>
        <mxCell id="m3W_yr-4TeU8a0T5-6YU-11" value="tételek module" style="rounded=0;whiteSpace=wrap;html=1;" vertex="1" parent="1">
          <mxGeometry x="550" y="760" width="120" height="60" as="geometry" />
        </mxCell>
        <mxCell id="EEbPFHpirRDgUesiy9N8-9" style="edgeStyle=orthogonalEdgeStyle;rounded=0;orthogonalLoop=1;jettySize=auto;html=1;exitX=1;exitY=0.5;exitDx=0;exitDy=0;entryX=0;entryY=0.5;entryDx=0;entryDy=0;" edge="1" parent="1" source="m3W_yr-4TeU8a0T5-6YU-12" target="m3W_yr-4TeU8a0T5-6YU-13">
          <mxGeometry relative="1" as="geometry" />
        </mxCell>
        <mxCell id="EEbPFHpirRDgUesiy9N8-18" style="edgeStyle=orthogonalEdgeStyle;rounded=0;orthogonalLoop=1;jettySize=auto;html=1;exitX=0.5;exitY=1;exitDx=0;exitDy=0;entryX=0.5;entryY=0;entryDx=0;entryDy=0;" edge="1" parent="1" source="m3W_yr-4TeU8a0T5-6YU-12" target="m3W_yr-4TeU8a0T5-6YU-14">
          <mxGeometry relative="1" as="geometry" />
        </mxCell>
        <mxCell id="m3W_yr-4TeU8a0T5-6YU-12" value="akarja menteni?" style="rhombus;whiteSpace=wrap;html=1;" vertex="1" parent="1">
          <mxGeometry x="390" y="860" width="80" height="80" as="geometry" />
        </mxCell>
        <mxCell id="EEbPFHpirRDgUesiy9N8-11" style="edgeStyle=orthogonalEdgeStyle;rounded=0;orthogonalLoop=1;jettySize=auto;html=1;exitX=0.5;exitY=1;exitDx=0;exitDy=0;entryX=0.5;entryY=0;entryDx=0;entryDy=0;" edge="1" parent="1" source="m3W_yr-4TeU8a0T5-6YU-13" target="EEbPFHpirRDgUesiy9N8-10">
          <mxGeometry relative="1" as="geometry" />
        </mxCell>
        <mxCell id="m3W_yr-4TeU8a0T5-6YU-13" value="foglalás mentése" style="shape=parallelogram;perimeter=parallelogramPerimeter;whiteSpace=wrap;html=1;fixedSize=1;" vertex="1" parent="1">
          <mxGeometry x="550" y="870" width="120" height="60" as="geometry" />
        </mxCell>
        <mxCell id="EEbPFHpirRDgUesiy9N8-13" style="edgeStyle=orthogonalEdgeStyle;rounded=0;orthogonalLoop=1;jettySize=auto;html=1;exitX=0.5;exitY=1;exitDx=0;exitDy=0;" edge="1" parent="1" source="m3W_yr-4TeU8a0T5-6YU-14">
          <mxGeometry relative="1" as="geometry">
            <mxPoint x="420" y="170" as="targetPoint" />
            <Array as="points">
              <mxPoint x="430" y="1070" />
              <mxPoint x="291" y="1070" />
            </Array>
          </mxGeometry>
        </mxCell>
        <mxCell id="EEbPFHpirRDgUesiy9N8-14" style="edgeStyle=orthogonalEdgeStyle;rounded=0;orthogonalLoop=1;jettySize=auto;html=1;exitX=1;exitY=0.5;exitDx=0;exitDy=0;entryX=0;entryY=0.5;entryDx=0;entryDy=0;" edge="1" parent="1" source="m3W_yr-4TeU8a0T5-6YU-14" target="EEbPFHpirRDgUesiy9N8-10">
          <mxGeometry relative="1" as="geometry" />
        </mxCell>
        <mxCell id="m3W_yr-4TeU8a0T5-6YU-14" value="visszalép mentés nélkül?" style="rhombus;whiteSpace=wrap;html=1;" vertex="1" parent="1">
          <mxGeometry x="390" y="970" width="80" height="80" as="geometry" />
        </mxCell>
        <mxCell id="EEbPFHpirRDgUesiy9N8-15" style="edgeStyle=orthogonalEdgeStyle;rounded=0;orthogonalLoop=1;jettySize=auto;html=1;exitX=0.5;exitY=1;exitDx=0;exitDy=0;entryX=0.5;entryY=0;entryDx=0;entryDy=0;" edge="1" parent="1" source="EEbPFHpirRDgUesiy9N8-10" target="m3W_yr-4TeU8a0T5-6YU-3">
          <mxGeometry relative="1" as="geometry" />
        </mxCell>
        <mxCell id="EEbPFHpirRDgUesiy9N8-10" value="foglalások module" style="rounded=0;whiteSpace=wrap;html=1;" vertex="1" parent="1">
          <mxGeometry x="550" y="980" width="120" height="60" as="geometry" />
        </mxCell>
        <mxCell id="EEbPFHpirRDgUesiy9N8-19" value="i" style="text;html=1;align=center;verticalAlign=middle;resizable=0;points=[];autosize=1;strokeColor=none;fillColor=none;" vertex="1" parent="1">
          <mxGeometry x="455" y="758" width="30" height="30" as="geometry" />
        </mxCell>
        <mxCell id="EEbPFHpirRDgUesiy9N8-20" value="n" style="text;html=1;align=center;verticalAlign=middle;resizable=0;points=[];autosize=1;strokeColor=none;fillColor=none;" vertex="1" parent="1">
          <mxGeometry x="440" y="810" width="30" height="30" as="geometry" />
        </mxCell>
        <mxCell id="EEbPFHpirRDgUesiy9N8-21" value="i" style="text;html=1;align=center;verticalAlign=middle;resizable=0;points=[];autosize=1;strokeColor=none;fillColor=none;" vertex="1" parent="1">
          <mxGeometry x="455" y="868" width="30" height="30" as="geometry" />
        </mxCell>
        <mxCell id="EEbPFHpirRDgUesiy9N8-22" value="n" style="text;html=1;align=center;verticalAlign=middle;resizable=0;points=[];autosize=1;strokeColor=none;fillColor=none;" vertex="1" parent="1">
          <mxGeometry x="435" y="918" width="30" height="30" as="geometry" />
        </mxCell>
        <mxCell id="EEbPFHpirRDgUesiy9N8-24" value="i" style="text;html=1;align=center;verticalAlign=middle;resizable=0;points=[];autosize=1;strokeColor=none;fillColor=none;" vertex="1" parent="1">
          <mxGeometry x="455" y="978" width="30" height="30" as="geometry" />
        </mxCell>
        <mxCell id="EEbPFHpirRDgUesiy9N8-25" value="n" style="text;html=1;align=center;verticalAlign=middle;resizable=0;points=[];autosize=1;strokeColor=none;fillColor=none;" vertex="1" parent="1">
          <mxGeometry x="435" y="1038" width="30" height="30" as="geometry" />
        </mxCell>
      </root>
    </mxGraphModel>
  </diagram>
  <diagram id="fTev0LqDcV4WVodlok5v" name="tételek module">
    <mxGraphModel dx="1434" dy="694" grid="1" gridSize="10" guides="1" tooltips="1" connect="1" arrows="1" fold="1" page="1" pageScale="1" pageWidth="827" pageHeight="1169" math="0" shadow="0">
      <root>
        <mxCell id="0" />
        <mxCell id="1" parent="0" />
        <mxCell id="BX_FP_VMY3DFl-JHvv5t-1" value="Tételek module" style="text;html=1;align=center;verticalAlign=middle;whiteSpace=wrap;rounded=0;fontSize=24;" vertex="1" parent="1">
          <mxGeometry x="540" y="20" width="270" height="30" as="geometry" />
        </mxCell>
        <mxCell id="9JVo-mX-M2Qi4NXTUsfl-1" style="edgeStyle=orthogonalEdgeStyle;rounded=0;orthogonalLoop=1;jettySize=auto;html=1;exitX=0.5;exitY=1;exitDx=0;exitDy=0;entryX=0.5;entryY=0;entryDx=0;entryDy=0;" edge="1" parent="1" source="BX_FP_VMY3DFl-JHvv5t-2" target="BX_FP_VMY3DFl-JHvv5t-4">
          <mxGeometry relative="1" as="geometry" />
        </mxCell>
        <mxCell id="BX_FP_VMY3DFl-JHvv5t-2" value="start" style="ellipse;whiteSpace=wrap;html=1;" vertex="1" parent="1">
          <mxGeometry x="380" y="60" width="120" height="80" as="geometry" />
        </mxCell>
        <mxCell id="BX_FP_VMY3DFl-JHvv5t-3" value="stop" style="ellipse;whiteSpace=wrap;html=1;" vertex="1" parent="1">
          <mxGeometry x="570" y="490" width="120" height="80" as="geometry" />
        </mxCell>
        <mxCell id="9JVo-mX-M2Qi4NXTUsfl-2" style="edgeStyle=orthogonalEdgeStyle;rounded=0;orthogonalLoop=1;jettySize=auto;html=1;exitX=0.5;exitY=1;exitDx=0;exitDy=0;entryX=0.5;entryY=0;entryDx=0;entryDy=0;" edge="1" parent="1" source="BX_FP_VMY3DFl-JHvv5t-4" target="BX_FP_VMY3DFl-JHvv5t-5">
          <mxGeometry relative="1" as="geometry" />
        </mxCell>
        <mxCell id="BX_FP_VMY3DFl-JHvv5t-4" value="ki: foglalás tételei lista" style="shape=parallelogram;perimeter=parallelogramPerimeter;whiteSpace=wrap;html=1;fixedSize=1;" vertex="1" parent="1">
          <mxGeometry x="380" y="240" width="120" height="60" as="geometry" />
        </mxCell>
        <mxCell id="9JVo-mX-M2Qi4NXTUsfl-3" style="edgeStyle=orthogonalEdgeStyle;rounded=0;orthogonalLoop=1;jettySize=auto;html=1;exitX=1;exitY=0.5;exitDx=0;exitDy=0;entryX=0;entryY=0.5;entryDx=0;entryDy=0;" edge="1" parent="1" source="BX_FP_VMY3DFl-JHvv5t-5" target="BX_FP_VMY3DFl-JHvv5t-6">
          <mxGeometry relative="1" as="geometry" />
        </mxCell>
        <mxCell id="9JVo-mX-M2Qi4NXTUsfl-5" style="edgeStyle=orthogonalEdgeStyle;rounded=0;orthogonalLoop=1;jettySize=auto;html=1;exitX=0;exitY=0.5;exitDx=0;exitDy=0;" edge="1" parent="1" source="BX_FP_VMY3DFl-JHvv5t-5">
          <mxGeometry relative="1" as="geometry">
            <mxPoint x="430" y="180" as="targetPoint" />
            <Array as="points">
              <mxPoint x="321" y="410" />
            </Array>
          </mxGeometry>
        </mxCell>
        <mxCell id="BX_FP_VMY3DFl-JHvv5t-5" value="visszalép?" style="rhombus;whiteSpace=wrap;html=1;" vertex="1" parent="1">
          <mxGeometry x="400" y="370" width="80" height="80" as="geometry" />
        </mxCell>
        <mxCell id="9JVo-mX-M2Qi4NXTUsfl-6" style="edgeStyle=orthogonalEdgeStyle;rounded=0;orthogonalLoop=1;jettySize=auto;html=1;exitX=0.5;exitY=1;exitDx=0;exitDy=0;entryX=0.5;entryY=0;entryDx=0;entryDy=0;" edge="1" parent="1" source="BX_FP_VMY3DFl-JHvv5t-6" target="BX_FP_VMY3DFl-JHvv5t-3">
          <mxGeometry relative="1" as="geometry" />
        </mxCell>
        <mxCell id="BX_FP_VMY3DFl-JHvv5t-6" value="foglalás szerkesztés module" style="rounded=0;whiteSpace=wrap;html=1;" vertex="1" parent="1">
          <mxGeometry x="570" y="380" width="120" height="60" as="geometry" />
        </mxCell>
        <mxCell id="9JVo-mX-M2Qi4NXTUsfl-4" value="i" style="text;html=1;align=center;verticalAlign=middle;resizable=0;points=[];autosize=1;strokeColor=none;fillColor=none;" vertex="1" parent="1">
          <mxGeometry x="465" y="378" width="30" height="30" as="geometry" />
        </mxCell>
        <mxCell id="9JVo-mX-M2Qi4NXTUsfl-7" value="n" style="text;html=1;align=center;verticalAlign=middle;resizable=0;points=[];autosize=1;strokeColor=none;fillColor=none;" vertex="1" parent="1">
          <mxGeometry x="375" y="378" width="30" height="30" as="geometry" />
        </mxCell>
      </root>
    </mxGraphModel>
  </diagram>
  <diagram id="7mi3gJyunzpZ26oFADYW" name="felszereléskép szerkesztés module">
    <mxGraphModel dx="1434" dy="694" grid="1" gridSize="10" guides="1" tooltips="1" connect="1" arrows="1" fold="1" page="1" pageScale="1" pageWidth="827" pageHeight="1169" math="0" shadow="0">
      <root>
        <mxCell id="0" />
        <mxCell id="1" parent="0" />
        <mxCell id="wJEr42TruQRK5RJboyXd-1" value="Felszereléskép szerkesztés module" style="text;html=1;align=center;verticalAlign=middle;whiteSpace=wrap;rounded=0;fontSize=24;" vertex="1" parent="1">
          <mxGeometry x="550" y="30" width="270" height="30" as="geometry" />
        </mxCell>
        <mxCell id="IENw4msZlZuEJaZO8gT2-1" style="edgeStyle=orthogonalEdgeStyle;rounded=0;orthogonalLoop=1;jettySize=auto;html=1;exitX=0.5;exitY=1;exitDx=0;exitDy=0;entryX=0.5;entryY=0;entryDx=0;entryDy=0;" edge="1" parent="1" source="wJEr42TruQRK5RJboyXd-2" target="wJEr42TruQRK5RJboyXd-4">
          <mxGeometry relative="1" as="geometry" />
        </mxCell>
        <mxCell id="wJEr42TruQRK5RJboyXd-2" value="start" style="ellipse;whiteSpace=wrap;html=1;" vertex="1" parent="1">
          <mxGeometry x="380" y="40" width="120" height="80" as="geometry" />
        </mxCell>
        <mxCell id="wJEr42TruQRK5RJboyXd-3" value="stop" style="ellipse;whiteSpace=wrap;html=1;" vertex="1" parent="1">
          <mxGeometry x="560" y="730" width="120" height="80" as="geometry" />
        </mxCell>
        <mxCell id="IENw4msZlZuEJaZO8gT2-2" style="edgeStyle=orthogonalEdgeStyle;rounded=0;orthogonalLoop=1;jettySize=auto;html=1;exitX=0.5;exitY=1;exitDx=0;exitDy=0;entryX=0.5;entryY=0;entryDx=0;entryDy=0;" edge="1" parent="1" source="wJEr42TruQRK5RJboyXd-4" target="wJEr42TruQRK5RJboyXd-12">
          <mxGeometry relative="1" as="geometry" />
        </mxCell>
        <mxCell id="wJEr42TruQRK5RJboyXd-4" value="ki: kép" style="shape=parallelogram;perimeter=parallelogramPerimeter;whiteSpace=wrap;html=1;fixedSize=1;" vertex="1" parent="1">
          <mxGeometry x="380" y="160" width="120" height="60" as="geometry" />
        </mxCell>
        <mxCell id="IENw4msZlZuEJaZO8gT2-5" style="edgeStyle=orthogonalEdgeStyle;rounded=0;orthogonalLoop=1;jettySize=auto;html=1;exitX=0.5;exitY=1;exitDx=0;exitDy=0;entryX=0.5;entryY=0;entryDx=0;entryDy=0;" edge="1" parent="1" source="wJEr42TruQRK5RJboyXd-5" target="wJEr42TruQRK5RJboyXd-6">
          <mxGeometry relative="1" as="geometry" />
        </mxCell>
        <mxCell id="wJEr42TruQRK5RJboyXd-5" value="be: név" style="shape=parallelogram;perimeter=parallelogramPerimeter;whiteSpace=wrap;html=1;fixedSize=1;" vertex="1" parent="1">
          <mxGeometry x="380" y="360" width="120" height="60" as="geometry" />
        </mxCell>
        <mxCell id="IENw4msZlZuEJaZO8gT2-6" style="edgeStyle=orthogonalEdgeStyle;rounded=0;orthogonalLoop=1;jettySize=auto;html=1;exitX=1;exitY=0.5;exitDx=0;exitDy=0;entryX=0;entryY=0.5;entryDx=0;entryDy=0;" edge="1" parent="1" source="wJEr42TruQRK5RJboyXd-6" target="wJEr42TruQRK5RJboyXd-8">
          <mxGeometry relative="1" as="geometry" />
        </mxCell>
        <mxCell id="IENw4msZlZuEJaZO8gT2-10" style="edgeStyle=orthogonalEdgeStyle;rounded=0;orthogonalLoop=1;jettySize=auto;html=1;exitX=0.5;exitY=1;exitDx=0;exitDy=0;entryX=0.5;entryY=0;entryDx=0;entryDy=0;" edge="1" parent="1" source="wJEr42TruQRK5RJboyXd-6" target="wJEr42TruQRK5RJboyXd-9">
          <mxGeometry relative="1" as="geometry" />
        </mxCell>
        <mxCell id="wJEr42TruQRK5RJboyXd-6" value="akarja menteni?" style="rhombus;whiteSpace=wrap;html=1;" vertex="1" parent="1">
          <mxGeometry x="400" y="482" width="80" height="80" as="geometry" />
        </mxCell>
        <mxCell id="IENw4msZlZuEJaZO8gT2-7" style="edgeStyle=orthogonalEdgeStyle;rounded=0;orthogonalLoop=1;jettySize=auto;html=1;exitX=0.5;exitY=1;exitDx=0;exitDy=0;entryX=0.5;entryY=0;entryDx=0;entryDy=0;" edge="1" parent="1" source="wJEr42TruQRK5RJboyXd-8" target="wJEr42TruQRK5RJboyXd-11">
          <mxGeometry relative="1" as="geometry" />
        </mxCell>
        <mxCell id="wJEr42TruQRK5RJboyXd-8" value="kép mentése" style="shape=parallelogram;perimeter=parallelogramPerimeter;whiteSpace=wrap;html=1;fixedSize=1;" vertex="1" parent="1">
          <mxGeometry x="560" y="492" width="120" height="60" as="geometry" />
        </mxCell>
        <mxCell id="IENw4msZlZuEJaZO8gT2-8" style="edgeStyle=orthogonalEdgeStyle;rounded=0;orthogonalLoop=1;jettySize=auto;html=1;exitX=1;exitY=0.5;exitDx=0;exitDy=0;entryX=0;entryY=0.5;entryDx=0;entryDy=0;" edge="1" parent="1" source="wJEr42TruQRK5RJboyXd-9" target="wJEr42TruQRK5RJboyXd-11">
          <mxGeometry relative="1" as="geometry" />
        </mxCell>
        <mxCell id="IENw4msZlZuEJaZO8gT2-9" style="edgeStyle=orthogonalEdgeStyle;rounded=0;orthogonalLoop=1;jettySize=auto;html=1;exitX=0.5;exitY=1;exitDx=0;exitDy=0;" edge="1" parent="1" source="wJEr42TruQRK5RJboyXd-9">
          <mxGeometry relative="1" as="geometry">
            <mxPoint x="430" y="140" as="targetPoint" />
            <Array as="points">
              <mxPoint x="440" y="707" />
              <mxPoint x="291" y="707" />
            </Array>
          </mxGeometry>
        </mxCell>
        <mxCell id="wJEr42TruQRK5RJboyXd-9" value="visszalép mentés nélkül?" style="rhombus;whiteSpace=wrap;html=1;" vertex="1" parent="1">
          <mxGeometry x="400" y="607" width="80" height="80" as="geometry" />
        </mxCell>
        <mxCell id="IENw4msZlZuEJaZO8gT2-11" style="edgeStyle=orthogonalEdgeStyle;rounded=0;orthogonalLoop=1;jettySize=auto;html=1;exitX=0.5;exitY=1;exitDx=0;exitDy=0;entryX=0.5;entryY=0;entryDx=0;entryDy=0;" edge="1" parent="1" source="wJEr42TruQRK5RJboyXd-11" target="wJEr42TruQRK5RJboyXd-3">
          <mxGeometry relative="1" as="geometry" />
        </mxCell>
        <mxCell id="wJEr42TruQRK5RJboyXd-11" value="felszerelésképek module" style="rounded=0;whiteSpace=wrap;html=1;" vertex="1" parent="1">
          <mxGeometry x="560" y="617" width="120" height="60" as="geometry" />
        </mxCell>
        <mxCell id="IENw4msZlZuEJaZO8gT2-3" style="edgeStyle=orthogonalEdgeStyle;rounded=0;orthogonalLoop=1;jettySize=auto;html=1;exitX=0.5;exitY=1;exitDx=0;exitDy=0;entryX=0.5;entryY=0;entryDx=0;entryDy=0;" edge="1" parent="1" source="wJEr42TruQRK5RJboyXd-12" target="wJEr42TruQRK5RJboyXd-5">
          <mxGeometry relative="1" as="geometry" />
        </mxCell>
        <mxCell id="IENw4msZlZuEJaZO8gT2-4" style="edgeStyle=orthogonalEdgeStyle;rounded=0;orthogonalLoop=1;jettySize=auto;html=1;exitX=1;exitY=0.5;exitDx=0;exitDy=0;entryX=0;entryY=0.5;entryDx=0;entryDy=0;" edge="1" parent="1" source="wJEr42TruQRK5RJboyXd-12" target="wJEr42TruQRK5RJboyXd-13">
          <mxGeometry relative="1" as="geometry" />
        </mxCell>
        <mxCell id="wJEr42TruQRK5RJboyXd-12" value="akar új képet kiválasztani?" style="rhombus;whiteSpace=wrap;html=1;" vertex="1" parent="1">
          <mxGeometry x="400" y="250" width="80" height="80" as="geometry" />
        </mxCell>
        <mxCell id="IENw4msZlZuEJaZO8gT2-12" style="edgeStyle=orthogonalEdgeStyle;rounded=0;orthogonalLoop=1;jettySize=auto;html=1;exitX=0.5;exitY=1;exitDx=0;exitDy=0;" edge="1" parent="1" source="wJEr42TruQRK5RJboyXd-13">
          <mxGeometry relative="1" as="geometry">
            <mxPoint x="450" y="340" as="targetPoint" />
            <Array as="points">
              <mxPoint x="630" y="340" />
              <mxPoint x="631" y="340" />
            </Array>
          </mxGeometry>
        </mxCell>
        <mxCell id="wJEr42TruQRK5RJboyXd-13" value="be: kép" style="shape=parallelogram;perimeter=parallelogramPerimeter;whiteSpace=wrap;html=1;fixedSize=1;" vertex="1" parent="1">
          <mxGeometry x="570" y="260" width="120" height="60" as="geometry" />
        </mxCell>
        <mxCell id="IENw4msZlZuEJaZO8gT2-13" value="i" style="text;html=1;align=center;verticalAlign=middle;resizable=0;points=[];autosize=1;strokeColor=none;fillColor=none;" vertex="1" parent="1">
          <mxGeometry x="465" y="488" width="30" height="30" as="geometry" />
        </mxCell>
        <mxCell id="IENw4msZlZuEJaZO8gT2-14" value="n" style="text;html=1;align=center;verticalAlign=middle;resizable=0;points=[];autosize=1;strokeColor=none;fillColor=none;" vertex="1" parent="1">
          <mxGeometry x="445" y="548" width="30" height="30" as="geometry" />
        </mxCell>
        <mxCell id="IENw4msZlZuEJaZO8gT2-15" value="i" style="text;html=1;align=center;verticalAlign=middle;resizable=0;points=[];autosize=1;strokeColor=none;fillColor=none;" vertex="1" parent="1">
          <mxGeometry x="465" y="608" width="30" height="30" as="geometry" />
        </mxCell>
        <mxCell id="IENw4msZlZuEJaZO8gT2-17" value="n" style="text;html=1;align=center;verticalAlign=middle;resizable=0;points=[];autosize=1;strokeColor=none;fillColor=none;" vertex="1" parent="1">
          <mxGeometry x="445" y="668" width="30" height="30" as="geometry" />
        </mxCell>
        <mxCell id="IENw4msZlZuEJaZO8gT2-18" value="i" style="text;html=1;align=center;verticalAlign=middle;resizable=0;points=[];autosize=1;strokeColor=none;fillColor=none;" vertex="1" parent="1">
          <mxGeometry x="465" y="258" width="30" height="30" as="geometry" />
        </mxCell>
        <mxCell id="IENw4msZlZuEJaZO8gT2-19" value="n" style="text;html=1;align=center;verticalAlign=middle;resizable=0;points=[];autosize=1;strokeColor=none;fillColor=none;" vertex="1" parent="1">
          <mxGeometry x="445" y="310" width="30" height="30" as="geometry" />
        </mxCell>
      </root>
    </mxGraphModel>
  </diagram>
</mxfile>
